<svg width="12" height="12" viewBox="0 0 12 12" fill="none" xmlns="http://www.w3.org/2000/svg">
<g clip-path="url(#clip0)">
<path d="M11.9995 6.35431C11.8043 2.93432 9.06591 0.195921 5.64666 0.000750657C5.63991 0 5.63315 0 5.6264 0C5.42222 0 5.25482 0.174152 5.25482 0.380583V6.7454H11.6219C11.8343 6.74465 12.0122 6.566 11.9995 6.35431ZM6.00548 5.99475V0.786688C8.72736 1.12448 10.8757 3.27286 11.2135 5.99475H6.00548Z" fill="white"/>
<path d="M4.87945 7.49598C4.67227 7.49598 4.50412 7.32784 4.50412 7.12066V1.55078C1.95865 1.9156 0.000183105 4.09851 0.000183105 6.74533C0.000183105 9.64737 2.35274 11.9999 5.25478 11.9999C7.9016 11.9999 10.0845 10.0415 10.4501 7.49598H4.87945Z" fill="white"/>
</g>
<defs>
<clipPath id="clip0">
<rect width="12" height="12" fill="white"/>
</clipPath>
</defs>
</svg>
