<svg width="42" height="42" viewBox="0 0 42 42" fill="none" xmlns="http://www.w3.org/2000/svg">
<path d="M23.1386 27.2817C23.1467 27.2007 23.1328 27.1189 23.0984 27.0449L22.6876 27.2359L23.0984 27.0448C23.0615 26.9655 23.0025 26.8985 22.9285 26.8518C22.9466 26.8283 22.9648 26.805 22.983 26.7817L23.1386 27.2817ZM23.1386 27.2817H23.2287H23.1386ZM29.9165 16.5149V16.5151V25.3984C29.9165 25.5801 29.8806 25.7601 29.811 25.928C29.7414 26.0959 29.6394 26.2485 29.5108 26.377C29.3822 26.5054 29.2296 26.6073 29.0616 26.6768L29.2526 27.1388L29.0616 26.6768C28.8936 26.7462 28.7136 26.7819 28.5318 26.7817H28.5314H23.6275C23.7651 26.622 23.9045 26.4815 24.0681 26.357C24.4116 26.0955 24.8824 25.8984 25.7072 25.8984H27.399C27.8324 25.8984 28.248 25.7262 28.5545 25.4197C28.8609 25.1133 29.0331 24.6976 29.0331 24.2642V17.2263V17.2258C29.0328 16.9287 28.9667 16.6355 28.8396 16.367C28.7126 16.0985 28.5276 15.8615 28.2981 15.673L28.2979 15.6728L22.0343 10.5329C22.0341 10.5327 22.0339 10.5325 22.0337 10.5323C21.7423 10.2922 21.3765 10.161 20.9989 10.161C20.6212 10.161 20.2553 10.2923 19.9639 10.5325C19.9638 10.5326 19.9636 10.5328 19.9635 10.5329L13.7016 15.6729L13.7011 15.6733C13.4718 15.862 13.2872 16.0991 13.1604 16.3677C13.0337 16.6362 12.9681 16.9294 12.9681 17.2263C12.9681 17.2264 12.9681 17.2264 12.9681 17.2265V24.2642C12.9681 24.6972 13.14 25.1125 13.4459 25.4188C13.7518 25.7252 14.1668 25.8977 14.5998 25.8984H14.6006H16.2923C17.1172 25.8984 17.5884 26.0955 17.9322 26.3571C18.0958 26.4815 18.2352 26.622 18.3728 26.7817H13.4699C13.1025 26.7817 12.7502 26.6358 12.4905 26.376C12.2307 26.1163 12.0848 25.764 12.0848 25.3966V16.5151L12.0848 16.515C12.0848 16.3102 12.1302 16.1081 12.2179 15.923C12.3056 15.738 12.4333 15.5748 12.5918 15.4452L12.5927 15.4445L20.1105 9.26795L20.1113 9.26731C20.3619 9.06058 20.6766 8.94751 21.0015 8.94751C21.3264 8.94751 21.6411 9.06058 21.8917 9.26731L21.8925 9.26798L29.4115 15.444C29.5695 15.5742 29.6967 15.7377 29.784 15.9229C29.8713 16.108 29.9165 16.3102 29.9165 16.5149Z" fill="#292929" stroke="#292929"/>
<path d="M21.0458 22.5483C21.041 22.5536 21.0351 22.5578 21.0285 22.5606L21.0458 22.5483ZM21.0458 22.5483L21.15 22.4105L21.0458 22.5483ZM22.9575 20.8471L22.9499 20.8573L22.8273 21.0213L22.8256 21.0236L22.8256 21.0235L21.4446 22.8499L21.4295 22.8699L21.4125 22.8883C21.3608 22.944 21.2982 22.9884 21.2286 23.0188L21.2286 23.0189C21.1591 23.0492 21.0839 23.0649 21.0078 23.0649C20.9317 23.0649 20.8566 23.0492 20.7871 23.0189L20.7871 23.0188C20.7174 22.9884 20.6548 22.944 20.6032 22.8883L20.5871 22.8709L20.5727 22.8521L19.1624 21.0085L19.155 20.9989L19.1551 20.9988L19.1425 20.9814L19.1413 20.9798L19.0727 20.8863L19.0586 20.8686L19.0462 20.8531L19.0351 20.8367C18.7743 20.4516 18.6296 19.9999 18.618 19.5353C18.6162 19.5084 18.6159 19.4814 18.617 19.4545C18.6158 19.4165 18.6161 19.3786 18.6179 19.3406C18.6322 18.8552 18.7951 18.3859 19.0848 17.996C19.3742 17.6064 19.7762 17.3151 20.2365 17.1612C20.2975 17.1394 20.3596 17.1209 20.4226 17.1058C20.4982 17.0856 20.5751 17.0705 20.6527 17.0603L20.6524 17.0603L22.9575 20.8471ZM22.9575 20.8471L22.9646 20.8365M22.9575 20.8471L22.9646 20.8365M22.9646 20.8365C23.2223 20.4524 23.3663 20.0034 23.3802 19.5412L23.3926 19.4052L23.3953 19.3751L23.3944 19.3449C23.3798 18.8583 23.2162 18.3879 22.9259 17.9971L22.5245 18.2953L22.9259 17.9971C22.636 17.607 22.2336 17.3149 21.7728 17.1603C21.7095 17.1385 21.6487 17.1211 21.5882 17.1063C21.5114 17.0856 21.4333 17.0702 21.3544 17.0601L21.3541 17.06L21.2591 17.048L21.2591 17.0479M22.9646 20.8365L21.2591 17.0479M21.2591 17.0479L21.2497 17.0468M21.2591 17.0479L21.2497 17.0468M21.2497 17.0468C21.1676 17.038 21.0851 17.0336 21.0026 17.0336L21.2497 17.0468ZM24.2609 19.2577L24.2608 19.2577L24.2614 19.2689C24.2617 19.2742 24.2621 19.2863 24.2626 19.3025C24.2641 19.346 24.2667 19.4189 24.2702 19.4672C24.2708 19.4815 24.2707 19.4959 24.27 19.5102L24.2696 19.5187L24.2694 19.5272C24.258 20.1731 24.0596 20.8016 23.6982 21.3368L21.0062 24.8914L20.8588 24.6966L19.8238 23.3292C19.4471 22.8315 19.0702 22.3333 18.7866 21.9583L18.4432 21.5039L18.3463 21.3755L18.3209 21.3417C18.3203 21.3408 18.3196 21.34 18.3191 21.3393C17.9567 20.8035 17.7577 20.174 17.7463 19.5272L17.7461 19.5187L17.7457 19.5102C17.7448 19.4941 17.7448 19.4779 17.7457 19.4617L17.7463 19.4488V19.4359V19.4355V19.4352V19.4348V19.4344V19.434V19.4336V19.4332V19.4328V19.4325V19.4321V19.4317V19.4313V19.4309V19.4305V19.4302V19.4298V19.4294V19.429V19.4286V19.4282V19.4278V19.4275V19.4271V19.4267V19.4263V19.4259V19.4255V19.4251V19.4248V19.4244V19.424V19.4236V19.4232V19.4228V19.4224V19.4221V19.4217V19.4213V19.4209V19.4205V19.4201V19.4197V19.4194V19.419V19.4186V19.4182V19.4178V19.4174V19.417V19.4167V19.4163V19.4159V19.4155V19.4151V19.4147V19.4143V19.414V19.4136V19.4132V19.4128V19.4124V19.412V19.4116V19.4113V19.4109V19.4105V19.4101V19.4097V19.4093V19.4089V19.4085V19.4082V19.4078V19.4074V19.407V19.4066V19.4062V19.4058V19.4054V19.4051V19.4047V19.4043V19.4039V19.4035V19.4031V19.4027V19.4024V19.402V19.4016V19.4012V19.4008V19.4004V19.4V19.3996V19.3993V19.3989V19.3985V19.3981V19.3977V19.3973V19.3969V19.3965V19.3962V19.3958V19.3954V19.395V19.3946V19.3942V19.3938V19.3934V19.3931V19.3927V19.3923V19.3919V19.3915V19.3911V19.3907V19.3903V19.3899V19.3896V19.3892V19.3888V19.3884V19.388V19.3876V19.3872V19.3868V19.3865V19.3861V19.3857V19.3853V19.3849V19.3845V19.3841V19.3837V19.3833V19.383V19.3826V19.3822V19.3818V19.3814V19.381V19.3806V19.3802V19.3799V19.3795V19.3791V19.3787V19.3783V19.3779V19.3775V19.3771V19.3767V19.3764V19.376V19.3756V19.3752V19.3748V19.3744V19.374V19.3736V19.3732V19.3729V19.3725V19.3721V19.3717V19.3713V19.3709V19.3705V19.3701V19.3697V19.3694V19.369V19.3686V19.3682V19.3678V19.3674V19.367V19.3666V19.3662V19.3659V19.3655V19.3651V19.3647V19.3643V19.3639V19.3635V19.3631V19.3627V19.3624V19.362V19.3616V19.3612V19.3608V19.3604V19.36V19.3596V19.3592V19.3589V19.3585V19.3581V19.3577V19.3573V19.3569V19.3565V19.3561V19.3557V19.3554V19.355V19.3546V19.3542V19.3538V19.3534V19.353V19.3526V19.3522V19.3519V19.3515V19.3511V19.3507V19.3503V19.3499V19.3495V19.3491V19.3487V19.3483V19.348V19.3476V19.3472V19.3468V19.3464V19.346V19.3456V19.3452V19.3448V19.3445V19.3441V19.3437V19.3433V19.3429V19.3425V19.3421V19.3417V19.3413V19.3409V19.3406V19.3402V19.3398V19.3394V19.339V19.3386V19.3382V19.3378V19.3374V19.3371V19.3367V19.3363V19.3359V19.3355V19.3351V19.3347V19.3343V19.3339V19.3335V19.3332V19.3328V19.3324V19.332V19.3316V19.3312V19.3308V19.3304V19.33V19.3297V19.3293V19.3289V19.3285V19.3281V19.3277V19.3273V19.3269V19.3265V19.3262V19.3258V19.3254V19.325V19.3246V19.3242V19.3238V19.3234V19.323V19.3226V19.3223V19.3219V19.3215V19.3211V19.3207V19.3203V19.3199V19.3195V19.3191V19.3188V19.3184V19.318V19.3176V19.3172V19.3168V19.3164V19.316V19.3156V19.3153V19.3149V19.3145V19.3141V19.3137V19.3133V19.3129V19.3125V19.3121V19.3117V19.3114V19.311V19.3106V19.3102V19.3098V19.3094V19.309V19.3086V19.3082V19.3079V19.3075V19.3071V19.3067V19.3063V19.3059V19.3055V19.3051V19.3047V19.3044V19.304V19.3036V19.3032V19.3028V19.3024V19.302V19.3016V19.3012V19.3009V19.3005V19.3001V19.2997V19.2993V19.2989V19.2985V19.2981V19.2977V19.2974V19.297V19.2966V19.2962V19.2958V19.2954V19.295V19.2946V19.2943V19.2939V19.2935V19.2931V19.2927V19.2923V19.2919V19.2915V19.2911V19.2908V19.2904V19.29V19.2896V19.2892V19.2888V19.2884V19.288V19.2876V19.2873V19.2869V19.2865V19.2861V19.2857V19.2853V19.2849V19.2845V19.2842V19.2838V19.2834V19.283V19.2826V19.2822V19.2818V19.2814V19.2811V19.2807V19.2803V19.2799V19.2795V19.2791V19.2787V19.2783V19.278V19.2776V19.2772V19.2768V19.2764V19.276V19.2756V19.2752V19.2749V19.2745V19.2741V19.2737V19.2733V19.2729V19.2725V19.2721V19.2718V19.2714V19.271V19.2706V19.2702V19.2698V19.2694V19.269V19.2687V19.2683V19.2679V19.2675V19.2671V19.2667V19.2663V19.2659V19.2656V19.2652V19.2648V19.2644V19.264V19.2636V19.2632V19.2629V19.2625V19.2621V19.2617V19.2613V19.2609V19.2605V19.2601V19.2598V19.2594V19.259V19.2586V19.2582V19.2578V19.2574V19.2571V19.2567V19.2563V19.2559V19.2555V19.2551V19.2547V19.2544V19.254V19.2536V19.2532V19.2528V19.2524V19.252V19.2517V19.2513V19.2509V19.2505V19.2501V19.2497V19.2493V19.249V19.2486V19.2482V19.2478V19.2474V19.247V19.2466V19.2463V19.2459V19.2455V19.2451V19.2451C17.7674 18.5816 17.9906 17.9404 18.386 17.4071C18.7809 16.8746 19.3286 16.4752 19.9562 16.262L20.2344 16.1812C20.3233 16.1589 20.4132 16.141 20.5039 16.1277L20.5039 16.1278L20.5113 16.1266C20.528 16.1238 20.5448 16.1209 20.558 16.1186C20.5603 16.1182 20.5625 16.1178 20.5646 16.1174C20.5801 16.1148 20.591 16.1129 20.6007 16.1114C20.615 16.1093 20.621 16.1089 20.622 16.1088H20.6458L20.6704 16.1064C20.8929 16.0844 21.1171 16.0843 21.3396 16.1062C21.4029 16.113 21.4523 16.1187 21.5009 16.1266L21.5009 16.1266L21.5083 16.1277C21.5971 16.1407 21.6851 16.1581 21.7722 16.1798L22.0419 16.2654C22.6724 16.4777 23.2229 16.8778 23.6195 17.412C24.0169 17.9472 24.2408 18.5914 24.2609 19.2577ZM21.2862 25.3498L21.0065 25.5615L21.0061 25.5618L21.0061 25.5618L21.0059 25.562L21.0057 25.5621L20.9301 25.6193L21.0057 25.5621L21.0059 25.562L21.0061 25.5618L21.0061 25.5618L21.0065 25.5615L21.2863 25.3496L21.2862 25.3498ZM20.7438 17.0483L20.653 17.0603L21.0024 17.0336C20.9201 17.0336 20.8378 17.038 20.756 17.0468L20.7559 17.0467L20.7438 17.0483Z" fill="#292929" stroke="#292929"/>
<path d="M36.2717 15.1341C35.9738 11.2881 34.2356 7.69606 31.4045 5.0758C28.5735 2.45554 24.858 1 21.0004 1C17.1429 1 13.4273 2.45554 10.5963 5.0758C7.7652 7.69606 6.02706 11.2881 5.72914 15.1341C4.67538 15.362 3.70256 15.8698 2.91306 16.604C2.12356 17.3382 1.54659 18.2717 1.24287 19.3061C0.939157 20.3406 0.919933 21.4378 1.18722 22.4823C1.45451 23.5268 1.99843 24.4799 2.76172 25.2413C3.64785 26.1288 4.79025 26.7157 6.02778 26.9192C6.12034 26.971 6.22389 27 6.32988 27.0038C6.37213 27.0018 6.41422 26.9972 6.45589 26.99L6.50768 26.9744C6.66995 26.9865 6.83049 27.0038 6.99621 27.0038H8.3306C8.41825 27.0038 8.50504 26.9865 8.58599 26.9529C8.66695 26.9193 8.74048 26.8701 8.80238 26.808C8.86428 26.7459 8.91332 26.6723 8.94671 26.5912C8.98009 26.5102 8.99716 26.4234 8.99693 26.3357V15.6675C8.99512 15.4926 8.92459 15.3254 8.80057 15.202C8.67655 15.0786 8.50899 15.009 8.33405 15.0081H7.07907C7.40472 11.5413 9.01215 8.32076 11.5869 5.97655C14.1616 3.63233 17.5184 2.33314 21.0004 2.33314C24.4824 2.33314 27.8392 3.63233 30.4139 5.97655C32.9887 8.32076 34.5961 11.5413 34.9217 15.0081H33.6668C33.5791 15.0081 33.4923 15.0254 33.4114 15.059C33.3304 15.0926 33.2569 15.1418 33.195 15.2039C33.1331 15.2659 33.084 15.3396 33.0506 15.4206C33.0173 15.5017 33.0002 15.5885 33.0004 15.6761V26.3323C33.0002 26.4199 33.0173 26.5068 33.0506 26.5878C33.084 26.6688 33.1331 26.7425 33.195 26.8046C33.2569 26.8666 33.3304 26.9158 33.4114 26.9494C33.4923 26.983 33.5791 27.0003 33.6668 27.0003H34.9994V28.333C34.9994 33.4755 30.979 37.3837 25.5637 37.6409C25.3941 37.0158 25.0023 36.474 24.4619 36.117C23.9214 35.76 23.2693 35.6124 22.6278 35.7017C21.9862 35.791 21.3993 36.1111 20.9768 36.6022C20.5544 37.0932 20.3256 37.7214 20.3331 38.3691C20.3406 39.0168 20.5841 39.6395 21.0178 40.1206C21.4515 40.6016 22.0458 40.9081 22.6892 40.9824C23.3327 41.0568 23.9812 40.8939 24.5132 40.5245C25.0452 40.155 25.4242 39.6042 25.5793 38.9753C31.7472 38.706 36.3321 34.2281 36.3321 28.333V26.8467C37.4334 26.5929 38.4424 26.0377 39.246 25.243C40.007 24.48 40.5486 23.5262 40.8141 22.4818C41.0796 21.4374 41.0592 20.3408 40.755 19.307C40.4509 18.2732 39.8741 17.3402 39.0853 16.606C38.2965 15.8718 37.3246 15.3634 36.2717 15.1341ZM7.66772 16.3425V25.6746H6.99966C5.78568 25.7166 4.60325 25.2831 3.70418 24.4662C2.80511 23.6494 2.26045 22.5139 2.1862 21.3014C2.11194 20.089 2.51395 18.8955 3.30661 17.975C4.09928 17.0546 5.21996 16.48 6.43 16.3735C6.61904 16.3511 6.80931 16.3408 6.99966 16.3425H7.66772ZM23.0003 39.6744C22.7362 39.6748 22.478 39.5968 22.2583 39.4503C22.0386 39.3038 21.8673 39.0954 21.7661 38.8515C21.6648 38.6076 21.6383 38.3392 21.6897 38.0802C21.7411 37.8211 21.8683 37.5832 22.055 37.3965C22.2417 37.2098 22.4796 37.0827 22.7386 37.0312C22.9976 36.9798 23.2661 37.0064 23.51 37.1076C23.7539 37.2088 23.9623 37.3801 24.1088 37.5998C24.2553 37.8195 24.3333 38.0777 24.3329 38.3418C24.3302 38.6936 24.1886 39.0301 23.9391 39.278C23.6895 39.526 23.3521 39.6654 23.0003 39.6658V39.6744ZM35.5863 25.64C35.3915 25.6628 35.1956 25.6743 34.9994 25.6746H34.3383V16.3338H35.0046C36.2121 16.2998 37.3857 16.7359 38.278 17.5503C39.1703 18.3646 39.7115 19.4936 39.7876 20.6992C39.8637 21.9048 39.4687 23.0929 38.686 24.013C37.9032 24.9331 36.7938 25.5133 35.5915 25.6314L35.5863 25.64Z" fill="#292929" stroke="#292929" stroke-width="0.7" stroke-miterlimit="10"/>
</svg>
