<svg width="21" height="21" viewBox="0 0 21 21" fill="none" xmlns="http://www.w3.org/2000/svg">
<path d="M20.1257 14.1165C19.6414 14.1165 19.2514 14.5089 19.2514 14.9963V19.2403H1.74857V14.9963C1.74857 14.5089 1.35857 14.1165 0.874286 14.1165C0.39 14.1165 0 14.5089 0 14.9963V20.1201C0 20.6075 0.39 21 0.874286 21H20.1257C20.61 21 21 20.6075 21 20.1201V14.9963C21 14.5089 20.61 14.1165 20.1257 14.1165Z" fill="#7889A7"/>
<path d="M9.85709 15.1602C10.3499 15.6605 10.9542 15.3845 11.1385 15.1602L16.1657 9.71719C16.4957 9.35921 16.4742 8.80283 16.1185 8.47073C15.7628 8.13863 15.2099 8.1602 14.8842 8.51818L11.3742 12.3179V0.879852C11.3742 0.392483 10.9842 0 10.4999 0C10.0157 0 9.62566 0.392483 9.62566 0.879852V12.3222L6.11566 8.52249C5.78566 8.16451 5.2328 8.14726 4.87709 8.47505C4.52137 8.80715 4.50423 9.36353 4.82994 9.7215L9.85709 15.1602Z" fill="#7889A7"/>
</svg>
