<svg width="40" height="40" viewBox="0 0 40 40" fill="none" xmlns="http://www.w3.org/2000/svg">
<path d="M20 0C16.0444 0 12.1776 1.17298 8.8886 3.37061C5.59962 5.56824 3.03617 8.69181 1.52242 12.3463C0.00866572 16.0009 -0.387401 20.0222 0.384303 23.9018C1.15601 27.7814 3.06082 31.3451 5.85787 34.1421C8.65492 36.9392 12.2186 38.844 16.0982 39.6157C19.9778 40.3874 23.9992 39.9913 27.6537 38.4776C31.3082 36.9638 34.4318 34.4004 36.6294 31.1114C38.827 27.8224 40 23.9556 40 20C40 14.6957 37.8929 9.60859 34.1421 5.85786C30.3914 2.10714 25.3043 0 20 0V0ZM22.0833 20.875V31.7583H17.5833V20.875H15.3333V17.1333H17.5833V14.875C17.5833 11.8167 18.85 10 22.5 10H25.5083V13.75H23.5833C22.1833 13.75 22.0917 14.275 22.0917 15.25V17.125H25.4917L25.1 20.875H22.0833Z" fill="#C7D4DF"/>
</svg>
