<svg width="15" height="20" viewBox="0 0 15 20" fill="none" xmlns="http://www.w3.org/2000/svg">
<path d="M14.9948 7.24622C14.9483 5.71913 14.4334 4.24297 13.5196 3.01663C12.6057 1.79029 11.3369 0.872702 9.88392 0.387514L9.29579 0.216047C9.08035 0.161425 8.86223 0.11793 8.6423 0.0857321C8.51504 0.065156 8.39123 0.0514388 8.26397 0.0377214C7.7539 -0.0125738 7.24008 -0.0125738 6.73001 0.0377214C6.60275 0.0377214 6.47549 0.065156 6.35168 0.0857321C6.13061 0.117945 5.91135 0.16144 5.69475 0.216047L5.10662 0.387514C3.65443 0.872994 2.3865 1.79085 1.47383 3.01728C0.561155 4.24371 0.047652 5.71971 0.00257513 7.24622C0.00257513 7.37654 0.00257513 7.51028 0.00257513 7.6406C-0.000858377 7.70685 -0.000858377 7.77324 0.00257513 7.8395C0.0304143 9.32367 0.490477 10.7678 1.32674 11.9959L7.34222 19.9245C7.36019 19.948 7.38336 19.967 7.4099 19.9801C7.43644 19.9932 7.46566 20 7.49527 20C7.52488 20 7.5541 19.9932 7.58064 19.9801C7.60719 19.967 7.63034 19.948 7.64832 19.9245L13.6707 11.9959C14.5069 10.7678 14.967 9.32367 14.9948 7.8395C14.9983 7.77324 14.9983 7.70685 14.9948 7.6406C15.0017 7.51028 15.0017 7.37654 14.9948 7.24622ZM11.2494 7.7812C11.233 8.52314 11.0025 9.24465 10.5856 9.85939L10.3379 10.1852L7.58641 13.8134C7.57676 13.8238 7.56505 13.8321 7.55203 13.8378C7.53901 13.8434 7.52495 13.8464 7.51075 13.8464C7.49654 13.8464 7.48249 13.8434 7.46947 13.8378C7.45645 13.8321 7.44474 13.8238 7.43508 13.8134L4.62854 10.1509L4.60447 10.1132L4.45314 9.9074L4.41187 9.85596C3.99308 9.24232 3.76352 8.51991 3.75151 7.77777C3.74819 7.7447 3.74819 7.71139 3.75151 7.67832C3.74807 7.61206 3.74807 7.54568 3.75151 7.47942C3.77184 6.71559 4.02774 5.97655 4.48439 5.36292C4.94104 4.74929 5.57624 4.29087 6.30353 4.05007C6.39922 4.01585 6.49683 3.98723 6.59587 3.96433C6.7088 3.93363 6.82372 3.91071 6.93981 3.89574L7.12554 3.87174C7.25348 3.85805 7.38207 3.85118 7.51075 3.85116C7.63829 3.85096 7.76574 3.85783 7.89252 3.87174L8.08512 3.89574C8.19438 3.91096 8.30242 3.93389 8.40843 3.96433C8.50817 3.98834 8.60791 4.01577 8.70765 4.05007C9.43346 4.29372 10.0672 4.7528 10.524 5.36574C10.9807 5.97868 11.2386 6.7162 11.2631 7.47942L11.2494 7.7812Z" fill="#1D91FF"/>
</svg>
