<svg width="40" height="40" viewBox="0 0 40 40" fill="none" xmlns="http://www.w3.org/2000/svg">
<path d="M20 0C16.0444 0 12.1776 1.17298 8.8886 3.37061C5.59962 5.56823 3.03617 8.69181 1.52242 12.3463C0.0086658 16.0009 -0.387401 20.0222 0.384303 23.9018C1.15601 27.7814 3.06082 31.3451 5.85787 34.1421C8.65492 36.9392 12.2186 38.844 16.0982 39.6157C19.9778 40.3874 23.9991 39.9913 27.6537 38.4776C31.3082 36.9638 34.4318 34.4004 36.6294 31.1114C38.827 27.8224 40 23.9556 40 20C40 14.6957 37.8929 9.60859 34.1421 5.85786C30.3914 2.10714 25.3043 0 20 0V0ZM15.6 9.4C16.7417 9.35 17.1 9.33333 20 9.33333C22.8917 9.33333 23.2583 9.33333 24.3917 9.4C25.277 9.41732 26.1532 9.58353 26.9833 9.89166C27.6928 10.1668 28.3371 10.5868 28.8752 11.1248C29.4132 11.6629 29.8332 12.3072 30.1083 13.0167C30.4157 13.8442 30.5819 14.7174 30.6 15.6C30.65 16.7417 30.6667 17.1 30.6667 20C30.6667 22.9 30.6667 23.2583 30.6 24.4C30.5819 25.2826 30.4157 26.1558 30.1083 26.9833C29.8332 27.6928 29.4132 28.3371 28.8752 28.8751C28.3371 29.4132 27.6928 29.8332 26.9833 30.1083C26.1558 30.4157 25.2826 30.5819 24.4 30.6C23.2583 30.6583 22.9 30.6667 20 30.6667C17.1 30.6667 16.7417 30.6667 15.6 30.6C14.7148 30.5808 13.839 30.4146 13.0083 30.1083C12.3009 29.8313 11.6587 29.4106 11.1223 28.8727C10.5858 28.3348 10.1668 27.6915 9.89167 26.9833C9.5843 26.1558 9.4181 25.2826 9.40001 24.4C9.35001 23.2583 9.33334 22.9 9.33334 20C9.33334 17.1 9.33334 16.7417 9.40001 15.6C9.41405 14.717 9.58038 13.8431 9.89167 13.0167C10.1668 12.3072 10.5868 11.6629 11.1249 11.1248C11.6629 10.5868 12.3072 10.1668 13.0167 9.89166C13.8442 9.5843 14.7174 9.41809 15.6 9.4Z" fill="#C7D4DF"/>
<path d="M19.9999 16.4486C19.2958 16.4486 18.6075 16.6575 18.0222 17.0489C17.4368 17.4402 16.9807 17.9965 16.7117 18.6471C16.4426 19.2978 16.3726 20.0137 16.5106 20.7042C16.6486 21.3947 16.9883 22.0287 17.4868 22.526C17.9852 23.0233 18.6201 23.3615 19.3109 23.4979C20.0017 23.6342 20.7174 23.5626 21.3674 23.292C22.0175 23.0214 22.5726 22.564 22.9626 21.9778C23.3526 21.3915 23.5599 20.7027 23.5583 19.9986C23.5561 19.0563 23.1802 18.1534 22.5131 17.4879C21.846 16.8223 20.9422 16.4486 19.9999 16.4486ZM28.6833 15.6903C28.6764 15.0144 28.5581 14.3443 28.3333 13.7069C28.1487 13.2472 27.8641 12.8345 27.4999 12.4986C27.1614 12.13 26.7421 11.8448 26.2749 11.6653C25.6406 11.426 24.9695 11.2991 24.2916 11.2903C23.1666 11.2403 22.8333 11.2319 19.9833 11.2319H19.0416C17.0583 11.2319 16.6749 11.2319 15.7083 11.2903C15.0314 11.3016 14.3611 11.4255 13.7249 11.6569C13.2569 11.8346 12.8317 12.1091 12.477 12.4623C12.1223 12.8156 11.8462 13.2397 11.6666 13.7069C11.4351 14.3431 11.3112 15.0134 11.2999 15.6903C11.2499 16.8153 11.2416 17.1486 11.2416 19.9986C11.2416 22.8486 11.2416 23.1819 11.2999 24.3069C11.3112 24.9838 11.4351 25.6541 11.6666 26.2902C11.8511 26.7499 12.1358 27.1627 12.4999 27.4986C12.8406 27.8647 13.2592 28.1495 13.7249 28.3319C14.3611 28.5633 15.0314 28.6873 15.7083 28.6986C16.8333 28.7486 17.1666 28.7569 20.0166 28.7569C22.8666 28.7569 23.1999 28.7569 24.3249 28.6986C24.9962 28.6854 25.6607 28.5615 26.2916 28.3319C26.7513 28.1474 27.1641 27.8627 27.4999 27.4986C27.8681 27.1597 28.1533 26.7405 28.3333 26.2736C28.5647 25.6374 28.6886 24.9671 28.6999 24.2902C28.7499 23.1653 28.7583 22.8319 28.7583 19.9819C28.7583 17.1319 28.7333 16.8153 28.6833 15.6903ZM19.9999 25.4819C18.9151 25.4836 17.8541 25.1634 16.9513 24.5619C16.0485 23.9603 15.3443 23.1045 14.928 22.1027C14.5117 21.1009 14.402 19.9982 14.6126 18.934C14.8232 17.8698 15.3448 16.8919 16.1113 16.1242C16.8779 15.3566 17.8549 14.8335 18.9188 14.6212C19.9827 14.409 21.0856 14.5171 22.0881 14.9319C23.0905 15.3466 23.9474 16.0494 24.5503 16.9514C25.1531 17.8533 25.4749 18.9137 25.4749 19.9986C25.4749 21.4514 24.8984 22.8449 23.8719 23.8729C22.8453 24.901 21.4528 25.4797 19.9999 25.4819ZM25.6916 15.5903C25.4378 15.5903 25.1897 15.515 24.9786 15.374C24.7676 15.233 24.6031 15.0325 24.506 14.798C24.4088 14.5635 24.3834 14.3055 24.4329 14.0566C24.4825 13.8076 24.6047 13.579 24.7842 13.3995C24.9636 13.22 25.1923 13.0978 25.4412 13.0483C25.6902 12.9987 25.9482 13.0242 26.1827 13.1213C26.4172 13.2184 26.6176 13.3829 26.7587 13.5939C26.8997 13.805 26.9749 14.0531 26.9749 14.3069C26.9749 14.6473 26.8397 14.9737 26.5991 15.2144C26.3584 15.4551 26.032 15.5903 25.6916 15.5903ZM19.9999 16.4236C19.2969 16.4236 18.6096 16.6319 18.0248 17.0221C17.44 17.4124 16.9839 17.9672 16.7141 18.6164C16.4443 19.2656 16.3728 19.9802 16.5088 20.67C16.6447 21.3598 16.982 21.9939 17.478 22.4922C17.9739 22.9905 18.6064 23.3307 19.2956 23.4698C19.9847 23.609 20.6997 23.5409 21.3501 23.2741C22.0006 23.0074 22.5575 22.5539 22.9505 21.9709C23.3435 21.388 23.555 20.7016 23.5583 19.9986C23.5561 19.0563 23.1802 18.1534 22.5131 17.4879C21.846 16.8223 20.9422 16.4486 19.9999 16.4486V16.4236Z" fill="#C7D4DF"/>
</svg>
