<svg width="50" height="50" viewBox="0 0 50 50" fill="none" xmlns="http://www.w3.org/2000/svg">
<path fill-rule="evenodd" clip-rule="evenodd" d="M37.5 6.24998H35.4167C35.4167 3.95831 33.5417 2.08331 31.25 2.08331H18.75C16.4583 2.08331 14.5833 3.95831 14.5833 6.24998H12.5C8.95833 6.24998 6.25 8.95831 6.25 12.5V41.6666C6.25 45.2083 8.95833 47.9166 12.5 47.9166H37.5C41.0417 47.9166 43.75 45.2083 43.75 41.6666V12.5C43.75 8.95831 41.0417 6.24998 37.5 6.24998ZM18.75 6.24999H31.25V10.4167H18.75V8.33332V6.24999ZM37.4999 43.75C38.7499 43.75 39.5832 42.9166 39.5832 41.6666V12.5C39.5832 11.25 38.7499 10.4166 37.4999 10.4166H35.4166C35.4166 12.7083 33.5416 14.5833 31.2499 14.5833H18.7499C16.4582 14.5833 14.5832 12.7083 14.5832 10.4166H12.4999C11.2499 10.4166 10.4166 11.25 10.4166 12.5V41.6666C10.4166 42.9166 11.2499 43.75 12.4999 43.75H37.4999Z" fill="black"/>
<mask id="mask0" mask-type="alpha" maskUnits="userSpaceOnUse" x="6" y="2" width="38" height="46">
<path fill-rule="evenodd" clip-rule="evenodd" d="M37.5 6.24998H35.4167C35.4167 3.95831 33.5417 2.08331 31.25 2.08331H18.75C16.4583 2.08331 14.5833 3.95831 14.5833 6.24998H12.5C8.95833 6.24998 6.25 8.95831 6.25 12.5V41.6666C6.25 45.2083 8.95833 47.9166 12.5 47.9166H37.5C41.0417 47.9166 43.75 45.2083 43.75 41.6666V12.5C43.75 8.95831 41.0417 6.24998 37.5 6.24998ZM18.75 6.24999H31.25V10.4167H18.75V8.33332V6.24999ZM37.4999 43.75C38.7499 43.75 39.5832 42.9166 39.5832 41.6666V12.5C39.5832 11.25 38.7499 10.4166 37.4999 10.4166H35.4166C35.4166 12.7083 33.5416 14.5833 31.2499 14.5833H18.7499C16.4582 14.5833 14.5832 12.7083 14.5832 10.4166H12.4999C11.2499 10.4166 10.4166 11.25 10.4166 12.5V41.6666C10.4166 42.9166 11.2499 43.75 12.4999 43.75H37.4999Z" fill="white"/>
</mask>
<g mask="url(#mask0)">
<rect width="50" height="50" fill="#57CCBA"/>
</g>
</svg>
