<svg width="50" height="50" viewBox="0 0 50 50" fill="none" xmlns="http://www.w3.org/2000/svg">
<path fill-rule="evenodd" clip-rule="evenodd" d="M6.25 13.5417C6.25 9.58333 9.58333 6.25 13.5417 6.25C17.5 6.25 20.8333 9.58333 20.8333 13.5417C20.8333 17.5 17.5 20.8333 13.5417 20.8333C9.58333 20.8333 6.25 17.5 6.25 13.5417ZM41.0417 11.875L11.8751 41.0417C11.4584 41.4583 11.0418 41.6667 10.4168 41.6667C9.79175 41.6667 9.37509 41.4583 8.95842 41.0417C8.12509 40.2083 8.12509 38.9583 8.95842 38.125L38.1251 8.95833C38.9584 8.12499 40.2084 8.12499 41.0417 8.95833C41.8751 9.79166 41.8751 11.0417 41.0417 11.875ZM13.5416 16.6667C11.8749 16.6667 10.4166 15.2083 10.4166 13.5417C10.4166 11.875 11.8749 10.4167 13.5416 10.4167C15.2083 10.4167 16.6666 11.875 16.6666 13.5417C16.6666 15.2083 15.2083 16.6667 13.5416 16.6667ZM43.7499 36.4583C43.7499 40.4167 40.4166 43.75 36.4582 43.75C32.4999 43.75 29.1666 40.4167 29.1666 36.4583C29.1666 32.5 32.4999 29.1667 36.4582 29.1667C40.4166 29.1667 43.7499 32.5 43.7499 36.4583ZM36.4584 33.3333C38.1251 33.3333 39.5834 34.7917 39.5834 36.4583C39.5834 38.125 38.1251 39.5833 36.4584 39.5833C34.7918 39.5833 33.3334 38.125 33.3334 36.4583C33.3334 34.7917 34.7918 33.3333 36.4584 33.3333Z" fill="black"/>
<mask id="mask0" mask-type="alpha" maskUnits="userSpaceOnUse" x="6" y="6" width="38" height="38">
<path fill-rule="evenodd" clip-rule="evenodd" d="M6.25 13.5417C6.25 9.58333 9.58333 6.25 13.5417 6.25C17.5 6.25 20.8333 9.58333 20.8333 13.5417C20.8333 17.5 17.5 20.8333 13.5417 20.8333C9.58333 20.8333 6.25 17.5 6.25 13.5417ZM41.0417 11.875L11.8751 41.0417C11.4584 41.4583 11.0418 41.6667 10.4168 41.6667C9.79175 41.6667 9.37509 41.4583 8.95842 41.0417C8.12509 40.2083 8.12509 38.9583 8.95842 38.125L38.1251 8.95833C38.9584 8.12499 40.2084 8.12499 41.0417 8.95833C41.8751 9.79166 41.8751 11.0417 41.0417 11.875ZM13.5416 16.6667C11.8749 16.6667 10.4166 15.2083 10.4166 13.5417C10.4166 11.875 11.8749 10.4167 13.5416 10.4167C15.2083 10.4167 16.6666 11.875 16.6666 13.5417C16.6666 15.2083 15.2083 16.6667 13.5416 16.6667ZM43.7499 36.4583C43.7499 40.4167 40.4166 43.75 36.4582 43.75C32.4999 43.75 29.1666 40.4167 29.1666 36.4583C29.1666 32.5 32.4999 29.1667 36.4582 29.1667C40.4166 29.1667 43.7499 32.5 43.7499 36.4583ZM36.4584 33.3333C38.1251 33.3333 39.5834 34.7917 39.5834 36.4583C39.5834 38.125 38.1251 39.5833 36.4584 39.5833C34.7918 39.5833 33.3334 38.125 33.3334 36.4583C33.3334 34.7917 34.7918 33.3333 36.4584 33.3333Z" fill="white"/>
</mask>
<g mask="url(#mask0)">
<rect width="50" height="50" fill="#57CCBA"/>
</g>
</svg>
