<svg width="50" height="50" viewBox="0 0 50 50" fill="none" xmlns="http://www.w3.org/2000/svg">
<path fill-rule="evenodd" clip-rule="evenodd" d="M43.75 6.25H6.25C2.70833 6.25 0 8.95833 0 12.5V37.5C0 41.0417 2.70833 43.75 6.25 43.75H43.75C47.2917 43.75 50 41.0417 50 37.5V12.5C50 8.95833 47.2917 6.25 43.75 6.25ZM6.25 10.4167H43.75C45 10.4167 45.8333 11.25 45.8333 12.5V18.75H4.16667V12.5C4.16667 11.25 5 10.4167 6.25 10.4167ZM6.25 39.5833H43.75C45 39.5833 45.8333 38.75 45.8333 37.5V22.9167H4.16667V37.5C4.16667 38.75 5 39.5833 6.25 39.5833Z" fill="black"/>
<mask id="mask0" mask-type="alpha" maskUnits="userSpaceOnUse" x="0" y="6" width="50" height="38">
<path fill-rule="evenodd" clip-rule="evenodd" d="M43.75 6.25H6.25C2.70833 6.25 0 8.95833 0 12.5V37.5C0 41.0417 2.70833 43.75 6.25 43.75H43.75C47.2917 43.75 50 41.0417 50 37.5V12.5C50 8.95833 47.2917 6.25 43.75 6.25ZM6.25 10.4167H43.75C45 10.4167 45.8333 11.25 45.8333 12.5V18.75H4.16667V12.5C4.16667 11.25 5 10.4167 6.25 10.4167ZM6.25 39.5833H43.75C45 39.5833 45.8333 38.75 45.8333 37.5V22.9167H4.16667V37.5C4.16667 38.75 5 39.5833 6.25 39.5833Z" fill="white"/>
</mask>
<g mask="url(#mask0)">
<rect width="50" height="50" fill="#57CCBA"/>
</g>
</svg>
