<svg width="50" height="50" viewBox="0 0 50 50" fill="none" xmlns="http://www.w3.org/2000/svg">
<path fill-rule="evenodd" clip-rule="evenodd" d="M44.9998 17.1183L26.2498 2.55153C25.4165 1.92724 24.3748 1.92724 23.7498 2.55153L4.99984 17.1183C4.37484 17.5345 4.1665 18.1588 4.1665 18.7831V41.6737C4.1665 45.2114 6.87484 47.9166 10.4165 47.9166H39.5832C43.1248 47.9166 45.8332 45.2114 45.8332 41.6737V18.7831C45.8332 18.1588 45.6248 17.5345 44.9998 17.1183ZM29.1664 27.107V43.7547H20.8331V27.107H29.1664ZM39.5831 43.7547C40.8331 43.7547 41.6664 42.9223 41.6664 41.6738V19.8236L24.9997 6.92159L8.33308 19.8236V41.6738C8.33308 42.9223 9.16641 43.7547 10.4164 43.7547H16.6664V25.026C16.6664 23.7774 17.4997 22.9451 18.7497 22.9451H31.2497C32.4997 22.9451 33.3331 23.7774 33.3331 25.026V43.7547H39.5831Z" fill="black"/>
<mask id="mask0" mask-type="alpha" maskUnits="userSpaceOnUse" x="4" y="2" width="42" height="46">
<path fill-rule="evenodd" clip-rule="evenodd" d="M44.9998 17.1183L26.2498 2.55153C25.4165 1.92724 24.3748 1.92724 23.7498 2.55153L4.99984 17.1183C4.37484 17.5345 4.1665 18.1588 4.1665 18.7831V41.6737C4.1665 45.2114 6.87484 47.9166 10.4165 47.9166H39.5832C43.1248 47.9166 45.8332 45.2114 45.8332 41.6737V18.7831C45.8332 18.1588 45.6248 17.5345 44.9998 17.1183ZM29.1664 27.107V43.7547H20.8331V27.107H29.1664ZM39.5831 43.7547C40.8331 43.7547 41.6664 42.9223 41.6664 41.6738V19.8236L24.9997 6.92159L8.33308 19.8236V41.6738C8.33308 42.9223 9.16641 43.7547 10.4164 43.7547H16.6664V25.026C16.6664 23.7774 17.4997 22.9451 18.7497 22.9451H31.2497C32.4997 22.9451 33.3331 23.7774 33.3331 25.026V43.7547H39.5831Z" fill="white"/>
</mask>
<g mask="url(#mask0)">
<rect width="50" height="50" fill="#57CCBA"/>
</g>
</svg>
