<svg width="50" height="50" viewBox="0 0 50 50" fill="none" xmlns="http://www.w3.org/2000/svg">
<path fill-rule="evenodd" clip-rule="evenodd" d="M39.5835 25C39.5835 23.75 40.4168 22.9167 41.6668 22.9167C42.9168 22.9167 43.7502 23.75 43.7502 25V39.5834C43.7502 43.125 41.0418 45.8334 37.5002 45.8334H8.3335C4.79183 45.8334 2.0835 43.125 2.0835 39.5834V10.4167C2.0835 6.87502 4.79183 4.16669 8.3335 4.16669H31.2502C32.5002 4.16669 33.3335 5.00002 33.3335 6.25002C33.3335 7.50002 32.5002 8.33336 31.2502 8.33336H8.3335C7.0835 8.33336 6.25016 9.16669 6.25016 10.4167V39.5834C6.25016 40.8334 7.0835 41.6667 8.3335 41.6667H37.5002C38.7502 41.6667 39.5835 40.8334 39.5835 39.5834V25ZM24.3751 30.625L47.2918 7.70835C48.1251 6.87502 48.1251 5.62502 47.2918 4.79169C46.4585 3.95835 45.2085 3.95835 44.3751 4.79169L22.9168 26.25L18.1251 21.4584C17.2918 20.625 16.0418 20.625 15.2085 21.4584C14.3751 22.2917 14.3751 23.5417 15.2085 24.375L21.4585 30.625C21.8751 31.0417 22.2918 31.25 22.9168 31.25C23.5418 31.25 23.9585 31.0417 24.3751 30.625Z" fill="black"/>
<mask id="mask0" mask-type="alpha" maskUnits="userSpaceOnUse" x="2" y="4" width="46" height="42">
<path fill-rule="evenodd" clip-rule="evenodd" d="M39.5835 25C39.5835 23.75 40.4168 22.9167 41.6668 22.9167C42.9168 22.9167 43.7502 23.75 43.7502 25V39.5834C43.7502 43.125 41.0418 45.8334 37.5002 45.8334H8.3335C4.79183 45.8334 2.0835 43.125 2.0835 39.5834V10.4167C2.0835 6.87502 4.79183 4.16669 8.3335 4.16669H31.2502C32.5002 4.16669 33.3335 5.00002 33.3335 6.25002C33.3335 7.50002 32.5002 8.33336 31.2502 8.33336H8.3335C7.0835 8.33336 6.25016 9.16669 6.25016 10.4167V39.5834C6.25016 40.8334 7.0835 41.6667 8.3335 41.6667H37.5002C38.7502 41.6667 39.5835 40.8334 39.5835 39.5834V25ZM24.3751 30.625L47.2918 7.70835C48.1251 6.87502 48.1251 5.62502 47.2918 4.79169C46.4585 3.95835 45.2085 3.95835 44.3751 4.79169L22.9168 26.25L18.1251 21.4584C17.2918 20.625 16.0418 20.625 15.2085 21.4584C14.3751 22.2917 14.3751 23.5417 15.2085 24.375L21.4585 30.625C21.8751 31.0417 22.2918 31.25 22.9168 31.25C23.5418 31.25 23.9585 31.0417 24.3751 30.625Z" fill="white"/>
</mask>
<g mask="url(#mask0)">
<rect width="50" height="50" fill="#57CCBA"/>
</g>
</svg>
