<svg width="16" height="16" viewBox="0 0 16 16" fill="none" xmlns="http://www.w3.org/2000/svg">
<path d="M7.67863 1.44621C5.74898 1.44621 4.17919 3.01603 4.17919 4.94567C4.17919 6.26373 4.92148 7.46384 6.08796 8.05961L6.08798 13.633C6.08798 13.7174 6.12136 13.7982 6.18112 13.858L7.45371 15.1306C7.57805 15.2549 7.77927 15.2549 7.90361 15.1306L9.17619 13.858C9.23594 13.7983 9.26934 13.7174 9.26932 13.6331L9.2691 12.9966C9.2691 12.8996 9.22472 12.8077 9.14849 12.7473L8.76713 12.445L9.19615 11.9268C9.29369 11.8091 9.29369 11.639 9.19615 11.5213L8.76713 11.003L9.1487 10.701C9.22075 10.6461 9.26337 10.5608 9.26887 10.4701C9.27393 10.3794 9.2403 10.2909 9.17616 10.2267L8.75732 9.80787L9.16856 9.39663C9.22831 9.33689 9.2617 9.25604 9.26169 9.17168L9.26932 8.02557C10.4358 7.43024 11.1785 6.26418 11.1781 4.94567C11.1781 3.01604 9.60828 1.44621 7.67863 1.44621ZM8.63294 3.67328C8.63294 4.19964 8.20501 4.62757 7.67866 4.62757C7.15231 4.62757 6.72438 4.19964 6.72438 3.67328C6.72438 3.14693 7.1523 2.719 7.67866 2.719C8.20501 2.719 8.63292 3.14695 8.63294 3.67328Z" fill="white"/>
</svg>
