<svg width="25" height="25" viewBox="0 0 25 25" fill="none" xmlns="http://www.w3.org/2000/svg">
<g clip-path="url(#clip0)">
<path d="M23.629 3.59492C22.7499 2.71518 21.5571 2.22109 20.3135 2.22151C19.0703 2.21858 17.8775 2.71251 17.0003 3.5934L10.9479 9.6459C9.75038 10.8453 9.29257 12.5972 9.75027 14.2291C9.88428 14.7041 10.3781 14.9807 10.8531 14.8466C11.3282 14.7126 11.6047 14.2189 11.4707 13.7438C11.1886 12.7346 11.4717 11.6517 12.2116 10.9097L18.2641 4.85809C19.3957 3.72626 21.2305 3.72605 22.3624 4.85767C23.4942 5.98924 23.4944 7.82412 22.3628 8.95595L16.3104 15.0084C15.9137 15.4056 15.41 15.6786 14.8607 15.794C14.3775 15.8946 14.0673 16.3679 14.1679 16.8512C14.2544 17.2667 14.6212 17.5641 15.0457 17.5628C15.1082 17.5628 15.1705 17.5562 15.2316 17.5431C16.1193 17.3559 16.9333 16.9143 17.5741 16.2722L23.6266 10.2206C25.4569 8.39163 25.458 5.42524 23.629 3.59492Z" fill="#7889A7"/>
<path d="M15.2235 10.7953C15.0895 10.3202 14.5958 10.0437 14.1207 10.1777C13.6456 10.3117 13.3691 10.8055 13.5031 11.2806C13.7853 12.2898 13.5022 13.3727 12.7622 14.1146L6.70968 20.1671C5.57811 21.299 3.74324 21.2992 2.6114 20.1676C1.47957 19.036 1.47936 17.2011 2.61093 16.0693L8.66344 10.0159C9.05944 9.61883 9.5626 9.34584 10.1113 9.23026C10.5954 9.13343 10.9092 8.66259 10.8124 8.1786C10.7156 7.69461 10.2447 7.38067 9.76076 7.4775C9.75484 7.4787 9.74898 7.4799 9.74311 7.48121C8.85526 7.66864 8.04104 8.11021 7.39969 8.75214L1.34718 14.8046C-0.468738 16.6486 -0.44601 19.6154 1.39793 21.4314C3.22175 23.2274 6.14934 23.2277 7.97343 21.4318L14.0259 15.3784C15.2234 14.179 15.6812 12.4271 15.2235 10.7953Z" fill="#7889A7"/>
</g>
<defs>
<clipPath id="clip0">
<rect width="25" height="25" fill="white"/>
</clipPath>
</defs>
</svg>
