<svg width="230" height="55" viewBox="0 0 230 55" fill="none" xmlns="http://www.w3.org/2000/svg">
<path d="M133.963 48.6516V54.2276H103.013V48.6516H105.733L115.544 27.1125H121.346L131.157 48.6516H133.963ZM118.426 33.9415L111.889 48.6516H124.963L118.426 33.9415Z" fill="#1D91FF"/>
<path d="M150.693 27.1122C152.497 27.0991 154.284 27.4606 155.942 28.1739C157.544 28.8507 159.004 29.8241 160.246 31.0432C161.493 32.2623 162.494 33.7105 163.195 35.3089C163.915 36.9716 164.279 38.7668 164.264 40.5789C164.273 42.3513 163.934 44.1082 163.266 45.7493C162.598 47.3904 161.614 48.8835 160.37 50.1434C159.15 51.3816 157.706 52.375 156.114 53.0701C154.461 53.7953 152.678 54.173 150.874 54.1796C149.049 54.1964 147.24 53.8383 145.559 53.1275C143.951 52.4561 142.487 51.482 141.245 50.2581C140.001 49.0353 139.009 47.5795 138.325 45.9733C137.603 44.311 137.236 42.516 137.246 40.7033C137.238 38.8884 137.591 37.0901 138.286 35.4142C138.947 33.8034 139.92 32.3404 141.149 31.1102C142.388 29.8728 143.848 28.88 145.454 28.1834C147.107 27.4655 148.891 27.1007 150.693 27.1122ZM156.371 46.3463C157.113 45.6149 157.698 44.7394 158.089 43.7735C158.879 41.7899 158.879 39.5784 158.089 37.5948C157.684 36.6136 157.08 35.7277 156.314 34.9933C155.579 34.2821 154.714 33.7202 153.766 33.3387C152.793 32.9591 151.756 32.7676 150.712 32.7744C149.659 32.7454 148.612 32.9392 147.638 33.3429C146.665 33.7467 145.787 34.3514 145.062 35.1177C144.329 35.8468 143.749 36.7149 143.354 37.6714C142.565 39.6418 142.565 41.8413 143.354 43.8117C143.761 44.7861 144.366 45.6654 145.129 46.3941C145.856 47.1299 146.722 47.712 147.677 48.1061C148.647 48.5011 149.685 48.6994 150.731 48.6896C151.798 48.6793 152.853 48.4684 153.842 48.0679C154.804 47.6919 155.668 47.1035 156.371 46.3463Z" fill="#1D91FF"/>
<path d="M169.961 54.2276V27.1125H175.525L183.389 41.6695L191.253 27.1125H196.817V54.2276H191.253V36.7534L185.374 47.6377H181.442L175.525 36.7534V54.2276H169.961Z" fill="#1D91FF"/>
<path d="M213.595 27.1125H219.397L230 50.2871V54.2276H225.515L222.365 47.2456H210.531L207.458 54.2276H203.02V50.2871L213.595 27.1125ZM216.458 33.9415L213.032 41.6695H219.884L216.458 33.9415Z" fill="#1D91FF"/>
<path d="M83.3057 50.8609H83.029L79.6696 54.2276H75.7281V50.2775L77.6846 48.3646C76.3502 46.6763 75.6569 44.5681 75.7281 42.4155C75.7172 41.2171 75.9275 40.0271 76.3485 38.9054C76.7054 37.9345 77.2503 37.0439 77.9518 36.2847C78.6218 35.5732 79.4351 35.0124 80.3377 34.6396C81.2678 34.2603 82.2634 34.0685 83.2675 34.0753H96.8194V54.2276H91.1887V50.8609H83.3057ZM91.1887 39.6705H83.3439C83.1536 39.688 82.9687 39.7433 82.7999 39.8331C82.2289 40.0854 81.7799 40.5526 81.5497 41.1339C81.3805 41.5427 81.2992 41.9827 81.3111 42.4251C81.2561 43.1862 81.4876 43.9404 81.9601 44.5388C82.1334 44.7504 82.3501 44.9222 82.5954 45.0427C82.8407 45.1631 83.109 45.2294 83.3821 45.237H91.1887V39.6705Z" fill="#1D91FF"/>
<path d="M54.1025 23.2291V48.7853C54.105 49.5007 53.9662 50.2095 53.6942 50.8709C53.4222 51.5323 53.0223 52.1333 52.5176 52.6391C52.0128 53.145 51.4132 53.5457 50.7532 53.8183C50.0933 54.0909 49.386 54.23 48.6722 54.2275H31.8946C31.8698 54.2287 31.8452 54.2224 31.8239 54.2094C31.8027 54.1964 31.7859 54.1774 31.7756 54.1547C31.7653 54.132 31.7621 54.1068 31.7663 54.0822C31.7705 54.0577 31.7819 54.035 31.7992 54.017C33.8892 51.3773 35.3112 48.7853 40.5792 48.7853H45.4369C46.2934 48.7803 47.1134 48.4371 47.7191 47.8301C48.3247 47.2231 48.6672 46.4013 48.6722 45.543V25.2759C48.6722 24.6338 48.5302 23.9996 48.2562 23.4191C47.9823 22.8386 47.5833 22.3262 47.0879 21.9188L29.1079 7.11309C28.5263 6.63601 27.798 6.37534 27.0465 6.37534C26.2949 6.37534 25.5666 6.63601 24.9851 7.11309L6.99544 21.9188C6.50011 22.3262 6.1011 22.8386 5.82715 23.4191C5.55321 23.9996 5.41115 24.6338 5.41121 25.2759V45.543C5.41625 46.4046 5.76134 47.2293 6.37111 47.8368C6.98087 48.4443 7.80575 48.7853 8.66556 48.7853H13.5232C18.7913 48.7853 20.2037 51.3581 22.3033 53.9979C22.3205 54.0159 22.332 54.0386 22.3362 54.0631C22.3404 54.0877 22.3372 54.1129 22.3269 54.1356C22.3166 54.1583 22.2997 54.1773 22.2785 54.1903C22.2573 54.2033 22.2327 54.2095 22.2079 54.2083H5.41121C4.7006 54.2083 3.99695 54.0681 3.34043 53.7955C2.68391 53.523 2.08739 53.1235 1.58491 52.62C1.08243 52.1164 0.683848 51.5185 0.41191 50.8606C0.139972 50.2026 6.75361e-06 49.4975 6.75361e-06 48.7853V23.2291C-0.00125876 22.4278 0.175342 21.6361 0.517019 20.9116C0.858695 20.187 1.35689 19.5477 1.97552 19.0399L23.5726 1.2501C24.5543 0.441828 25.7855 0 27.056 0C28.3265 0 29.5577 0.441828 30.5394 1.2501L52.1269 19.0399C52.7446 19.5486 53.242 20.1881 53.5836 20.9124C53.9252 21.6368 54.1024 22.428 54.1025 23.2291Z" fill="#1D91FF"/>
<path d="M37.8591 31.0817C37.802 28.8709 37.0696 26.7309 35.7606 24.9504C34.4517 23.17 32.6292 21.8348 30.5392 21.1251C30.2624 21.0295 29.9761 20.9529 29.6898 20.8764C29.4035 20.7999 29.0695 20.733 28.7355 20.6851L28.1915 20.6182C27.4554 20.5416 26.7134 20.5416 25.9774 20.6182L25.4334 20.6851C25.1089 20.733 24.794 20.7999 24.479 20.8764C24.1641 20.9529 23.9064 21.0295 23.6297 21.1251C21.5229 21.8191 19.6811 23.1478 18.3557 24.9297C17.0303 26.7116 16.2858 28.86 16.2239 31.0817C16.2239 31.273 16.2239 31.4642 16.2239 31.6555C16.2239 31.8468 16.2239 31.8468 16.2239 31.9425C16.2636 34.094 16.9267 36.1875 18.1326 37.9681L26.8077 49.4454C26.8335 49.4791 26.8668 49.5064 26.9048 49.5252C26.9429 49.544 26.9847 49.5538 27.0272 49.5538C27.0696 49.5538 27.1115 49.544 27.1495 49.5252C27.1876 49.5064 27.2208 49.4791 27.2467 49.4454L35.9313 37.9681C37.1372 36.1875 37.8003 34.094 37.84 31.9425C37.84 31.8468 37.84 31.7512 37.84 31.6555C37.84 31.5599 37.8687 31.273 37.8591 31.0817ZM32.4479 31.8564C32.4248 32.9316 32.0935 33.9775 31.4936 34.8692L31.1404 35.3378L27.1703 40.5983C27.1569 40.6143 27.1401 40.6273 27.1211 40.6362C27.1022 40.645 27.0815 40.6496 27.0606 40.6496C27.0396 40.6496 27.019 40.645 27 40.6362C26.9811 40.6273 26.9643 40.6143 26.9508 40.5983L22.9044 35.2996V35.2422L22.6849 34.9457L22.6276 34.8692C22.0232 33.9797 21.6914 32.9324 21.6732 31.8564C21.6685 31.8087 21.6685 31.7606 21.6732 31.7129C21.6732 31.6173 21.6732 31.5216 21.6732 31.426C21.7012 30.3165 22.0699 29.2426 22.7292 28.3509C23.3884 27.4591 24.3061 26.7928 25.357 26.4429L25.777 26.3186C25.9338 26.2766 26.0932 26.2446 26.2541 26.2229H26.5214C26.7058 26.2134 26.8905 26.2134 27.0749 26.2229C27.2593 26.2132 27.444 26.2132 27.6284 26.2229H27.9052C28.063 26.2447 28.2192 26.2766 28.3728 26.3186L28.8023 26.4429C29.8439 26.8028 30.751 27.4727 31.4025 28.3632C32.054 29.2537 32.4187 30.3222 32.4479 31.426V31.8564Z" fill="#1D91FF"/>
</svg>
