<svg width="338" height="40" viewBox="0 0 338 40" fill="none" xmlns="http://www.w3.org/2000/svg">
<path d="M98.3782 35.8868V39.9998H75.6497V35.8868H77.6471L84.8518 19.999H89.113L96.3177 35.8868H98.3782ZM86.9684 25.0362L82.1676 35.8868H91.7692L86.9684 25.0362Z" fill="#1D91FF"/>
<path d="M110.664 19.999C111.989 19.9893 113.301 20.2559 114.519 20.7821C115.695 21.2813 116.768 21.9993 117.68 22.8985C118.595 23.7977 119.331 24.866 119.845 26.0451C120.374 27.2715 120.641 28.5956 120.63 29.9323C120.637 31.2397 120.388 32.5356 119.898 33.7461C119.407 34.9566 118.684 36.058 117.771 36.9873C116.875 37.9007 115.814 38.6334 114.645 39.1461C113.432 39.6811 112.122 39.9596 110.797 39.9645C109.457 39.9769 108.129 39.7128 106.894 39.1885C105.713 38.6932 104.638 37.9748 103.726 37.072C102.812 36.17 102.084 35.0961 101.581 33.9114C101.051 32.6852 100.781 31.3612 100.789 30.0241C100.783 28.6854 101.043 27.3589 101.553 26.1227C102.038 24.9346 102.753 23.8554 103.656 22.9479C104.566 22.0353 105.638 21.3029 106.817 20.7891C108.031 20.2595 109.341 19.9904 110.664 19.999ZM114.834 34.1865C115.379 33.647 115.808 33.0012 116.096 32.2887C116.675 30.8256 116.675 29.1943 116.096 27.7312C115.798 27.0074 115.354 26.3539 114.792 25.8123C114.253 25.2876 113.617 24.8731 112.921 24.5917C112.206 24.3118 111.445 24.1705 110.678 24.1755C109.905 24.1542 109.136 24.2971 108.421 24.5949C107.706 24.8927 107.061 25.3387 106.529 25.904C105.991 26.4418 105.564 27.0821 105.275 27.7876C104.695 29.2411 104.695 30.8635 105.275 32.3169C105.574 33.0357 106.018 33.6842 106.578 34.2218C107.112 34.7645 107.748 35.1939 108.45 35.4846C109.161 35.776 109.924 35.9222 110.692 35.915C111.476 35.9074 112.251 35.7518 112.977 35.4564C113.683 35.1791 114.318 34.745 114.834 34.1865Z" fill="#1D91FF"/>
<path d="M124.814 39.9998V19.999H128.9L134.675 30.7366L140.45 19.999H144.536V39.9998H140.45V27.1104L136.133 35.1389H133.245L128.9 27.1104V39.9998H124.814Z" fill="#1D91FF"/>
<path d="M156.857 19.999H161.118L168.905 37.0932V39.9998H165.611L163.298 34.8497H154.607L152.351 39.9998H149.092V37.0932L156.857 19.999ZM158.96 25.0362L156.443 30.7366H161.476L158.96 25.0362Z" fill="#1D91FF"/>
<path d="M61.1771 37.5165H60.9738L58.5068 39.9998H55.6123V37.0861L57.0491 35.6751C56.0691 34.4298 55.56 32.8748 55.6123 31.2869C55.6043 30.403 55.7587 29.5251 56.0679 28.6978C56.33 27.9816 56.7301 27.3247 57.2453 26.7647C57.7373 26.2398 58.3346 25.8262 58.9974 25.5512C59.6804 25.2714 60.4116 25.13 61.149 25.135H71.1011V39.9998H66.9661V37.5165H61.1771ZM66.9661 29.2622H61.2051C61.0653 29.2751 60.9295 29.3158 60.8056 29.3821C60.3863 29.5682 60.0565 29.9128 59.8875 30.3416C59.7632 30.6431 59.7035 30.9676 59.7123 31.294C59.6718 31.8554 59.8419 32.4117 60.1889 32.8531C60.3162 33.0092 60.4753 33.1359 60.6554 33.2248C60.8356 33.3136 61.0326 33.3625 61.2331 33.3681H66.9661V29.2622Z" fill="#1D91FF"/>
<path d="M40 17.1344V35.9853C40.0018 36.513 39.8993 37.0358 39.6982 37.5237C39.4971 38.0116 39.2014 38.4548 38.8282 38.828C38.455 39.2011 38.0117 39.4967 37.5238 39.6978C37.0358 39.8989 36.5129 40.0014 35.9852 39.9996H23.5809C23.5625 40.0005 23.5443 39.9958 23.5286 39.9863C23.5129 39.9767 23.5005 39.9626 23.4929 39.9459C23.4853 39.9292 23.4829 39.9106 23.486 39.8925C23.4891 39.8743 23.4976 39.8576 23.5103 39.8444C25.0556 37.8972 26.1069 35.9853 30.0017 35.9853H33.5932C34.2265 35.9816 34.8327 35.7284 35.2805 35.2807C35.7283 34.833 35.9815 34.2268 35.9852 33.5937V18.6442C35.9852 18.1705 35.8802 17.7027 35.6776 17.2745C35.4751 16.8463 35.1801 16.4684 34.8139 16.1679L21.5205 5.2468C21.0906 4.89489 20.5521 4.70262 19.9965 4.70262C19.4408 4.70262 18.9023 4.89489 18.4724 5.2468L5.17199 16.1679C4.80577 16.4684 4.51077 16.8463 4.30823 17.2745C4.1057 17.7027 4.00066 18.1705 4.00071 18.6442V33.5937C4.00444 34.2292 4.25958 34.8375 4.7104 35.2857C5.16122 35.7338 5.77108 35.9853 6.40677 35.9853H9.99823C13.8931 35.9853 14.9374 37.8831 16.4897 39.8302C16.5024 39.8435 16.5109 39.8602 16.514 39.8783C16.5171 39.8965 16.5147 39.9151 16.5071 39.9318C16.4995 39.9485 16.487 39.9626 16.4714 39.9721C16.4557 39.9817 16.4375 39.9863 16.4191 39.9855H4.00071C3.47533 39.9855 2.95509 39.882 2.46971 39.681C1.98432 39.4799 1.54328 39.1853 1.17178 38.8138C0.800284 38.4424 0.505594 38.0014 0.30454 37.5161C0.103486 37.0308 4.9932e-06 36.5106 4.9932e-06 35.9853V17.1344C-0.000930647 16.5433 0.129637 15.9594 0.382251 15.4249C0.634865 14.8905 1.0032 14.4189 1.46058 14.0443L17.4281 0.922104C18.1539 0.325904 19.0642 0 20.0035 0C20.9429 0 21.8531 0.325904 22.5789 0.922104L38.5394 14.0443C38.996 14.4196 39.3638 14.8913 39.6164 15.4256C39.8689 15.9599 39.9999 16.5435 40 17.1344Z" fill="#1D91FF"/>
<path d="M27.8028 22.9268C27.7609 21.2961 27.223 19.7175 26.2617 18.4042C25.3005 17.0909 23.9621 16.1061 22.4273 15.5826C22.224 15.512 22.0138 15.4556 21.8035 15.3991C21.5933 15.3427 21.348 15.2933 21.1027 15.258L20.7032 15.2087C20.1627 15.1522 19.6178 15.1522 19.0772 15.2087L18.6777 15.258C18.4395 15.2933 18.2082 15.3427 17.9769 15.3991C17.7456 15.4556 17.5564 15.512 17.3531 15.5826C15.806 16.0945 14.4535 17.0746 13.4801 18.3889C12.5068 19.7033 11.96 21.288 11.9146 22.9268C11.9146 23.0679 11.9146 23.209 11.9146 23.3501C11.9146 23.4912 11.9146 23.4912 11.9146 23.5617C11.9437 25.1488 12.4307 26.693 13.3162 28.0064L19.687 36.4723C19.7059 36.4972 19.7304 36.5174 19.7583 36.5312C19.7863 36.5451 19.817 36.5523 19.8482 36.5523C19.8793 36.5523 19.9101 36.5451 19.938 36.5312C19.966 36.5174 19.9904 36.4972 20.0094 36.4723L26.3871 28.0064C27.2726 26.693 27.7596 25.1488 27.7888 23.5617C27.7888 23.4912 27.7888 23.4206 27.7888 23.3501C27.7888 23.2795 27.8098 23.0679 27.8028 22.9268ZM23.829 23.4982C23.812 24.2914 23.5687 25.0628 23.1281 25.7206L22.8688 26.0663L19.9533 29.9465C19.9434 29.9583 19.9311 29.9679 19.9172 29.9744C19.9032 29.981 19.8881 29.9844 19.8727 29.9844C19.8573 29.9844 19.8421 29.981 19.8282 29.9744C19.8143 29.9679 19.802 29.9583 19.7921 29.9465L16.8205 26.038V25.9957L16.6593 25.777L16.6172 25.7206C16.1734 25.0644 15.9298 24.292 15.9164 23.4982C15.9129 23.4631 15.9129 23.4276 15.9164 23.3924C15.9164 23.3219 15.9164 23.2513 15.9164 23.1808C15.9369 22.3624 16.2077 21.5703 16.6919 20.9125C17.176 20.2547 17.8499 19.7632 18.6217 19.5051L18.9301 19.4134C19.0452 19.3824 19.1623 19.3589 19.2805 19.3429H19.4767C19.6121 19.3358 19.7478 19.3358 19.8832 19.3429C20.0186 19.3357 20.1543 19.3357 20.2897 19.3429H20.4929C20.6088 19.3589 20.7235 19.3825 20.8364 19.4134L21.1517 19.5051C21.9167 19.7706 22.5829 20.2648 23.0613 20.9216C23.5397 21.5784 23.8075 22.3666 23.829 23.1808V23.4982Z" fill="#1D91FF"/>
<path d="M183.952 19.999H188.041V33.6998L199.665 19.999H203.748V39.9998H199.665V26.2991L188.041 39.9998H183.952V19.999Z" fill="#57CCBA"/>
<path d="M227.143 39.9998H223.061V24.112H212.403V39.9998H208.32V19.999H227.143V39.9998Z" fill="#57CCBA"/>
<path d="M241.225 19.999C242.55 19.9911 243.863 20.2552 245.084 20.775C246.254 21.2791 247.323 21.9966 248.235 22.8915C249.144 23.7934 249.872 24.8643 250.377 26.0451C250.905 27.2692 251.172 28.5909 251.162 29.9253C251.176 31.889 250.617 33.8135 249.553 35.4594C248.49 37.1052 246.97 38.3996 245.182 39.1814C243.968 39.7128 242.66 39.9912 241.337 39.9998C239.999 40.0085 238.672 39.7445 237.437 39.2237C236.259 38.7259 235.185 38.0077 234.272 37.1073C233.359 36.2025 232.631 35.1263 232.129 33.9396C231.601 32.7156 231.334 31.3938 231.345 30.0593C231.336 28.7211 231.593 27.3946 232.101 26.1579C232.588 24.9691 233.302 23.8881 234.202 22.9762C235.115 22.0683 236.185 21.3366 237.36 20.8173C238.577 20.2752 239.894 19.9964 241.225 19.999ZM245.392 34.1865C245.935 33.6464 246.364 33.0008 246.652 32.2887C247.231 30.8231 247.231 29.1898 246.652 27.7242C246.356 27.0021 245.912 26.3508 245.35 25.8123C244.812 25.2853 244.177 24.8706 243.48 24.5917C242.767 24.3084 242.006 24.167 241.239 24.1755C240.473 24.1565 239.711 24.2999 239.003 24.5964C238.295 24.893 237.656 25.336 237.129 25.8969C236.587 26.4357 236.159 27.0787 235.868 27.7876C235.29 29.2411 235.29 30.8635 235.868 32.3169C236.167 33.0338 236.611 33.6802 237.171 34.2147C237.703 34.7603 238.339 35.1922 239.041 35.4846C239.753 35.7726 240.514 35.9188 241.281 35.915C242.063 35.9004 242.836 35.7451 243.564 35.4564C244.26 35.1754 244.884 34.7415 245.392 34.1865Z" fill="#57CCBA"/>
<path d="M253.542 19.999V24.112H260.426V39.9998H264.508V24.112H271.189V19.999H253.542Z" fill="#57CCBA"/>
<path d="M290.501 19.999V24.112H279.844V27.9429H290.501V32.0559H279.844V35.8868H290.501V39.9998H275.761V19.999H290.501Z" fill="#57CCBA"/>
<path d="M299.164 39.9998H295.074V19.999H299.164V29.0364L308.127 19.999H311.012V22.9056L305.9 28.0557L314.87 37.0932V39.9998H311.978L303.008 30.9624L299.164 34.8497V39.9998Z" fill="#57CCBA"/>
<path d="M325.605 19.999H329.862L337.6 37.0932V39.9998H334.344L332.075 34.8497H323.392L321.13 39.9998H317.86V37.0932L325.605 19.999ZM327.705 25.0362L325.191 30.7366H330.219L327.705 25.0362Z" fill="#57CCBA"/>
</svg>
