<svg width="19" height="18" viewBox="0 0 19 18" fill="none" xmlns="http://www.w3.org/2000/svg">
<path d="M16.0699 3.69846V2.71057C16.0699 2.12698 15.8063 1.58205 15.3492 1.21994C14.8922 0.857835 14.3051 0.727757 13.7391 0.861351L2.15859 3.31174C2.15508 3.31174 2.14805 3.31526 2.14453 3.31526C1.42031 3.48752 0.822656 3.93049 0.442969 4.5176C0.165234 4.87619 0 5.32619 0 5.81135V15.068C0 16.2387 0.952734 17.1914 2.12344 17.1914H15.8801C17.0508 17.1914 18.0035 16.2387 18.0035 15.0715V5.81135C18 4.70744 17.1527 3.7969 16.0699 3.69846ZM14.0133 2.11643C14.0168 2.11643 14.0238 2.11291 14.0273 2.11291C14.2102 2.07073 14.4035 2.11291 14.5512 2.22893C14.6988 2.34494 14.7832 2.52073 14.7832 2.71057V3.69143H6.57773L14.0133 2.11643ZM16.7133 15.068C16.7133 15.5285 16.3371 15.9047 15.8766 15.9047H2.12344C1.66289 15.9047 1.28672 15.5285 1.28672 15.068V6.02932C1.28672 5.74807 1.36406 5.4844 1.50117 5.25588C1.65586 5.08362 1.87734 4.97463 2.12344 4.97463H15.8801C16.3406 4.97463 16.7168 5.3508 16.7168 5.81135V15.068H16.7133Z" fill="#8C9FB1"/>
<path d="M14.2454 11.2641C14.6998 11.2641 15.0681 10.8958 15.0681 10.4414C15.0681 9.98709 14.6998 9.61877 14.2454 9.61877C13.7911 9.61877 13.4228 9.98709 13.4228 10.4414C13.4228 10.8958 13.7911 11.2641 14.2454 11.2641Z" fill="#8C9FB1"/>
</svg>
