<svg width="18" height="18" viewBox="0 0 18 18" fill="none" xmlns="http://www.w3.org/2000/svg">
<path d="M17.4727 0H0.527344C0.236109 0 0 0.236109 0 0.527344V11.8125C0 12.1037 0.236109 12.3398 0.527344 12.3398H3.15657L4.1271 13.3104C4.33304 13.5163 4.66692 13.5163 4.87287 13.3104C5.07881 13.1045 5.07881 12.7705 4.87287 12.5646L3.74794 11.4397C3.6977 11.3894 3.63023 11.3445 3.55398 11.317C3.42784 11.2713 3.54006 11.2852 1.05469 11.2852V7.74186L1.27948 7.96665C1.48546 8.17263 1.8193 8.1726 2.02525 7.96665C2.23119 7.76074 2.23119 7.42683 2.02525 7.22088L1.05469 6.25032V1.05469H6.50391V5.94141H3.65625C3.36502 5.94141 3.12891 6.17752 3.12891 6.46875C3.12891 6.75998 3.36502 6.99609 3.65625 6.99609H9C9.29123 6.99609 9.52734 6.75998 9.52734 6.46875C9.52734 6.17752 9.29123 5.94141 9 5.94141H7.55859V1.05469H16.9453V5.94141C11.4089 5.94141 11.7595 5.92756 11.6335 5.97326C11.5582 6.0004 11.4907 6.04477 11.4395 6.09595L10.3146 7.22088C10.1087 7.42679 10.1087 7.76071 10.3146 7.96665C10.5205 8.17263 10.8544 8.1726 11.0604 7.96665L12.0309 6.99609H16.9453V11.2852H11.8125C11.5213 11.2852 11.2852 11.5213 11.2852 11.8125C11.2852 12.1037 11.5213 12.3398 11.8125 12.3398H16.9453V16.9453H12.3398V14.625C12.3398 14.3338 12.1037 14.0977 11.8125 14.0977H9.52734V12.0309L10.4979 11.0604C10.7038 10.8545 10.7038 10.5206 10.4979 10.3146C10.292 10.1087 9.95804 10.1087 9.7521 10.3146L8.78157 11.2852H6.1875C5.89627 11.2852 5.66016 11.5213 5.66016 11.8125C5.66016 12.1037 5.89627 12.3398 6.1875 12.3398H8.47266V14.625C8.47266 14.9162 8.70877 15.1523 9 15.1523H11.2852V17.4727C11.2852 17.7639 11.5213 18 11.8125 18H17.4727C17.7639 18 18 17.7639 18 17.4727V0.527344C18 0.236109 17.7639 0 17.4727 0Z" fill="#8C9FB1"/>
</svg>
