<svg width="18" height="18" viewBox="0 0 18 18" fill="none" xmlns="http://www.w3.org/2000/svg">
<path d="M14.9748 3.12964C13.6007 1.14086 11.4228 0 9.0002 0C6.57754 0 4.39972 1.14086 3.02557 3.12964C1.65816 5.10838 1.34243 7.61351 2.17929 9.82677C2.40313 10.4312 2.75894 11.0184 3.23433 11.5687L8.52105 17.7784C8.64062 17.919 8.8158 18 9.0002 18C9.18459 18 9.35977 17.919 9.47934 17.7784L14.7646 11.5703C15.2421 11.0169 15.5974 10.4303 15.8194 9.83078C16.658 7.61351 16.3422 5.10838 14.9748 3.12964ZM14.6408 9.38999C14.4697 9.85257 14.1902 10.3099 13.8107 10.7498C13.8096 10.7509 13.8086 10.7519 13.8077 10.7532L9.0002 16.3999L4.1897 10.7497C3.8104 10.3101 3.53094 9.85282 3.35807 9.38581C2.66599 7.55539 2.92864 5.48413 4.06088 3.84546C5.19668 2.20155 6.9971 1.25873 9.0002 1.25873C11.0033 1.25873 12.8035 2.20152 13.9393 3.84546C15.0718 5.48413 15.3346 7.55539 14.6408 9.38999Z" fill="#8C9FB1"/>
<path d="M9.00021 3.73425C7.05691 3.73425 5.47572 5.31523 5.47572 7.25874C5.47572 9.20225 7.0567 10.7832 9.00021 10.7832C10.9437 10.7832 12.5247 9.20225 12.5247 7.25874C12.5247 5.31544 10.9435 3.73425 9.00021 3.73425ZM9.00021 9.52445C7.7509 9.52445 6.73446 8.50802 6.73446 7.2587C6.73446 6.00939 7.7509 4.99295 9.00021 4.99295C10.2495 4.99295 11.266 6.00939 11.266 7.2587C11.266 8.50802 10.2495 9.52445 9.00021 9.52445Z" fill="#8C9FB1"/>
</svg>
