<svg width="11" height="18" viewBox="0 0 11 18" fill="none" xmlns="http://www.w3.org/2000/svg">
<path d="M10.7012 9.10134L8.4812 7.83747C8.33881 7.75648 8.16675 7.54083 8.1204 7.38525L7.43279 5.07724C7.4157 5.0195 7.38978 4.96796 7.35796 4.92262C7.25799 4.74127 7.06532 4.61804 6.84201 4.61804L3.90674 4.74301C3.77809 4.74844 3.65848 4.79649 3.56048 4.87612C3.54083 4.88794 3.52041 4.89937 3.50273 4.91274L1.50824 6.43023C1.27786 6.60558 1.14882 6.96209 1.21481 7.24168L2.00456 10.5936C2.07035 10.8734 2.34178 11.0846 2.63541 11.0846C2.65525 11.0846 2.67528 11.0836 2.69512 11.0817L2.98992 11.0526C3.14783 11.0369 3.29042 10.9579 3.38076 10.8354C3.47131 10.713 3.50411 10.5549 3.47091 10.4018L2.90939 7.81422C2.87993 7.6784 2.95457 7.47748 3.06612 7.39281L3.42142 7.12291L3.60408 11.2778C3.60427 11.2822 3.60565 11.2863 3.60604 11.2908L2.79528 13.0648C2.69315 13.2882 2.43665 13.5976 2.23514 13.7408L0.334331 15.0909C0.0281363 15.3083 -0.0875462 15.7431 0.070756 16.081L0.330796 16.6353C0.434498 16.8564 0.64249 16.9937 0.873855 16.9937C1.00623 16.9937 1.13645 16.9494 1.25036 16.8659L3.76002 15.0223C4.01005 14.8386 4.3184 14.4811 4.46197 14.2081L5.71484 11.8277C5.72485 11.8085 5.73114 11.7879 5.73939 11.768L5.82679 11.7643L7.87745 17.3417C8.0222 17.7354 8.40833 18.0001 8.83826 18.0001C8.94039 18.0001 9.04134 17.9848 9.13837 17.9544L9.26485 17.9147C9.51547 17.8362 9.71678 17.6663 9.83187 17.4361C9.94677 17.2059 9.96072 16.9447 9.87115 16.701L7.71168 10.8281C7.70167 10.801 7.68792 10.7762 7.67594 10.7504L7.60661 9.17438L9.98743 10.3945C10.0711 10.4375 10.1654 10.4601 10.2602 10.4601C10.4806 10.4601 10.6823 10.3425 10.7866 10.1532L10.9282 9.89593C11.0822 9.61672 10.9803 9.26022 10.7012 9.10134Z" fill="#8C9FB1" fill-opacity="0.7"/>
<path d="M5.05109 4.19931C5.08192 4.19931 5.11315 4.19873 5.14438 4.19738C5.71219 4.17316 6.23659 3.93193 6.62075 3.51865C7.00492 3.10537 7.2029 2.56906 7.17835 2.00891C7.12768 0.852003 6.14762 -0.0481822 4.95996 0.0020003C4.39215 0.0262197 3.86775 0.267445 3.48358 0.680724C3.09941 1.0942 2.90144 1.63032 2.92599 2.19046C2.97548 3.31695 3.90899 4.19931 5.05109 4.19931Z" fill="#8C9FB1" fill-opacity="0.7"/>
</svg>
