<svg width="15" height="18" viewBox="0 0 15 18" fill="none" xmlns="http://www.w3.org/2000/svg">
<path d="M0 13.2632C0 14.1158 0.375 14.8737 0.9375 15.3474V17.0526C0.9375 17.6211 1.3125 18 1.875 18H2.8125C3.375 18 3.75 17.6211 3.75 17.0526V16.1053H11.25V17.0526C11.25 17.6211 11.625 18 12.1875 18H13.125C13.6875 18 14.0625 17.6211 14.0625 17.0526V15.3474C14.625 14.8737 15 14.1158 15 13.2632V3.78947C15 0.473684 11.625 0 7.5 0C3.375 0 0 0.473684 0 3.78947V13.2632ZM3.28125 14.2105C2.53125 14.2105 1.875 13.5474 1.875 12.7895C1.875 12.0316 2.53125 11.3684 3.28125 11.3684C4.03125 11.3684 4.6875 12.0316 4.6875 12.7895C4.6875 13.5474 4.03125 14.2105 3.28125 14.2105ZM11.7188 14.2105C10.9688 14.2105 10.3125 13.5474 10.3125 12.7895C10.3125 12.0316 10.9688 11.3684 11.7188 11.3684C12.4688 11.3684 13.125 12.0316 13.125 12.7895C13.125 13.5474 12.4688 14.2105 11.7188 14.2105ZM13.125 8.52632H1.875V3.78947H13.125V8.52632Z" fill="#8C9FB1" fill-opacity="0.7"/>
</svg>
