<svg width="19" height="19" viewBox="0 0 19 19" fill="none" xmlns="http://www.w3.org/2000/svg">
<path fill-rule="evenodd" clip-rule="evenodd" d="M1.52377 7.67368C0.420557 5.67357 0 4.06115 0 2.97207C0 1.88298 0.267578 1.57062 0.539097 1.31827C0.810616 1.06593 2.03497 0.31107 2.24359 0.170292C2.4522 0.0295144 3.2484 -0.244073 3.74771 0.47419C4.24702 1.19245 5.18727 2.63457 5.83552 3.5926C6.85275 4.94956 6.04235 5.54525 5.78058 5.90229C5.2989 6.55928 5.02155 6.72132 5.02155 7.52805C5.02155 8.33478 7.27613 10.6267 7.81523 11.1914C8.35022 11.7518 10.5967 13.7212 11.2928 13.8265C11.9938 13.9326 12.9323 13.1904 13.1318 13.0022C14.1468 12.2229 14.7198 12.8137 15.1873 13.0706C15.6549 13.3274 17.7673 14.6437 18.4219 15.0874C19.038 15.5311 18.9995 16.2168 18.9995 16.2168C18.9995 16.2168 18.5612 17.4964 17.5748 18.4756C17.3322 18.7164 16.9202 19 15.8805 19C14.8408 19 13.7299 18.8101 11.0899 17.3582C8.92976 16.1702 6.87053 14.3099 5.79234 13.2208C4.67563 12.1317 2.78395 9.95836 1.52377 7.67368Z" fill="#1D91FF"/>
</svg>
