<svg width="19" height="19" viewBox="0 0 19 19" fill="none" xmlns="http://www.w3.org/2000/svg">
<path d="M15.8067 3.30351C14.3562 1.20424 12.0574 0 9.50019 0C6.94294 0 4.64413 1.20424 3.19363 3.30351C1.75026 5.39218 1.41699 8.03648 2.30034 10.3727C2.53661 11.0107 2.9122 11.6305 3.41399 12.2114L8.99442 18.7661C9.12063 18.9145 9.30555 19 9.50019 19C9.69483 19 9.87974 18.9145 10.006 18.7661L15.5848 12.2131C16.0888 11.629 16.4639 11.0098 16.6983 10.3769C17.5834 8.03648 17.2501 5.39218 15.8067 3.30351ZM15.4542 9.91165C15.2735 10.3999 14.9785 10.8827 14.5779 11.347C14.5768 11.3482 14.5757 11.3493 14.5748 11.3506L9.50019 17.311L4.42244 11.3469C4.02206 10.8829 3.72708 10.4002 3.54461 9.90724C2.81408 7.97514 3.09132 5.7888 4.28647 4.0591C5.48536 2.32386 7.38581 1.32866 9.50019 1.32866C11.6145 1.32866 13.5148 2.32383 14.7137 4.0591C15.909 5.7888 16.1865 7.97514 15.4542 9.91165Z" fill="#1D91FF"/>
<path d="M9.5002 3.94189C7.44894 3.94189 5.77991 5.6107 5.77991 7.66218C5.77991 9.71366 7.44872 11.3825 9.5002 11.3825C11.5517 11.3825 13.2205 9.71366 13.2205 7.66218C13.2205 5.61093 11.5515 3.94189 9.5002 3.94189ZM9.5002 10.0538C8.18148 10.0538 7.10857 8.98086 7.10857 7.66215C7.10857 6.34343 8.18148 5.27052 9.5002 5.27052C10.8189 5.27052 11.8918 6.34343 11.8918 7.66215C11.8918 8.98086 10.8189 10.0538 9.5002 10.0538Z" fill="#1D91FF"/>
</svg>
