<svg width="18" height="18" viewBox="0 0 18 18" fill="none" xmlns="http://www.w3.org/2000/svg">
<path d="M2.7 3.6H15.3C15.825 3.6 16.2 3.975 16.2 4.5C16.2 5.025 15.825 5.4 15.3 5.4H2.7C2.175 5.4 1.8 5.025 1.8 4.5C1.8 3.975 2.175 3.6 2.7 3.6ZM4.5 0H13.5C14.025 0 14.4 0.375 14.4 0.9C14.4 1.425 14.025 1.8 13.5 1.8H4.5C3.975 1.8 3.6 1.425 3.6 0.9C3.6 0.375 3.975 0 4.5 0ZM16.2 7.2H1.8C0.825 7.2 0 8.025 0 9V16.2C0 17.175 0.825 18 1.8 18H16.2C17.175 18 18 17.175 18 16.2V9C18 8.025 17.175 7.2 16.2 7.2ZM15.675 16.2H2.325C2.025 16.2 1.8 15.975 1.8 15.675V9.525C1.8 9.225 2.025 9 2.325 9H15.675C15.975 9 16.2 9.225 16.2 9.525V15.675C16.2 15.975 15.975 16.2 15.675 16.2ZM11.925 12.6L6.15 12.525C5.7 12.525 5.25 12.15 5.25 11.625C5.25 11.175 5.625 10.725 6.15 10.725H11.925C12.375 10.725 12.825 11.1 12.825 11.625C12.75 12.225 12.375 12.6 11.925 12.6Z" fill="#7889A7"/>
</svg>
