<svg width="27" height="27" viewBox="0 0 27 27" fill="none" xmlns="http://www.w3.org/2000/svg">
<path fill-rule="evenodd" clip-rule="evenodd" d="M15.75 3.5H5.25C4.2875 3.5 3.5 4.2875 3.5 5.25V15.75C3.5 16.7125 4.2875 17.5 5.25 17.5H15.75C16.7125 17.5 17.5 16.7125 17.5 15.75V5.25C17.5 4.2875 16.7125 3.5 15.75 3.5ZM15.75 15.75H5.24999V5.25H15.75V15.75Z" fill="#7889A7"/>
<path fill-rule="evenodd" clip-rule="evenodd" d="M21.75 9.5H11.25C10.2875 9.5 9.5 10.2875 9.5 11.25V21.75C9.5 22.7125 10.2875 23.5 11.25 23.5H21.75C22.7125 23.5 23.5 22.7125 23.5 21.75V11.25C23.5 10.2875 22.7125 9.5 21.75 9.5ZM21.75 21.75H11.25V11.25H21.75V21.75Z" fill="#7889A7"/>
</svg>
