<svg width="22" height="22" viewBox="0 0 22 22" fill="none" xmlns="http://www.w3.org/2000/svg">
<path d="M21.0884 0H0.911602C0.407182 0 0 0.407182 0 0.911602V21.0884C0 21.5928 0.407182 22 0.911602 22H5.46961C5.97403 22 6.38122 21.5928 6.38122 21.0884C6.38122 18.8702 7.97348 16.9558 10.0276 16.5061V21.0884C10.0276 21.5928 10.4348 22 10.9392 22H21.0884C21.5928 22 22 21.5928 22 21.0884V0.911602C22 0.407182 21.5928 0 21.0884 0ZM16.4088 20.1768V17.3204C16.4088 16.816 16.0017 16.4088 15.4972 16.4088C14.9928 16.4088 14.5856 16.816 14.5856 17.3204V20.1768H11.8508V15.4972C11.8508 15.2541 11.7536 15.0232 11.5834 14.853C11.4133 14.6829 11.1823 14.5856 10.9392 14.5856C7.70608 14.5856 5.05635 17.0834 4.61878 20.1768H1.8232V9.11602H8.20442C8.70884 9.11602 9.11602 8.70884 9.11602 8.20442V6.38122C9.11602 5.8768 8.70884 5.46961 8.20442 5.46961C7.7 5.46961 7.29282 5.8768 7.29282 6.38122V7.29282H1.8232V1.8232H20.1768V7.29282H14.5856V6.38122C14.5856 5.8768 14.1785 5.46961 13.674 5.46961C13.1696 5.46961 12.7624 5.8768 12.7624 6.38122V8.20442C12.7624 8.70884 13.1696 9.11602 13.674 9.11602H20.1768V12.7624H15.4972C14.9928 12.7624 14.5856 13.1696 14.5856 13.674C14.5856 14.1785 14.9928 14.5856 15.4972 14.5856H20.1768V20.1768H16.4088Z" fill="#7889A7"/>
</svg>
