<svg width="25" height="25" viewBox="0 0 25 25" fill="none" xmlns="http://www.w3.org/2000/svg">
<path d="M24.1071 6.25001H19.6429V0.892874C19.6429 0.399745 19.2431 0 18.75 0H6.25001C5.75688 0 5.35714 0.399745 5.35714 0.892874V6.25001H0.892874C0.399745 6.25001 0 6.64976 0 7.14284V18.75C0 19.2431 0.399745 19.6429 0.892874 19.6429H5.35714V24.1071C5.35714 24.6003 5.75688 25 6.25001 25H18.75C19.2431 25 19.6429 24.6003 19.6429 24.1071V19.6429H24.1071C24.6003 19.6429 25 19.2431 25 18.75V7.14284C25 6.64976 24.6003 6.25001 24.1071 6.25001ZM7.14284 1.7857H17.8571V6.24996H7.14284V1.7857ZM17.8571 23.2143H7.14284V15.1785H17.8571V23.2143ZM23.2143 17.8571H19.6428V15.1785H20.5357C21.0288 15.1785 21.4286 14.7788 21.4286 14.2857C21.4286 13.7925 21.0288 13.3928 20.5357 13.3928H4.46427C3.97114 13.3928 3.57139 13.7926 3.57139 14.2857C3.57139 14.7789 3.97114 15.1786 4.46427 15.1786H5.35714V17.8572H1.7857V8.03571H23.2143V17.8571Z" fill="#7889A7"/>
<path d="M21.4286 9.82135H20.5357C20.0426 9.82135 19.6428 10.2211 19.6428 10.7142C19.6428 11.2074 20.0426 11.6071 20.5357 11.6071H21.4286C21.9217 11.6071 22.3214 11.2074 22.3214 10.7142C22.3214 10.2211 21.9217 9.82135 21.4286 9.82135Z" fill="#7889A7"/>
<path d="M15.1785 16.9643H9.8214C9.32827 16.9643 8.92853 17.364 8.92853 17.8571C8.92853 18.3503 9.32827 18.75 9.8214 18.75H15.1785C15.6717 18.75 16.0714 18.3503 16.0714 17.8571C16.0714 17.364 15.6717 16.9643 15.1785 16.9643Z" fill="#7889A7"/>
<path d="M15.1785 19.6429H9.8214C9.32827 19.6429 8.92853 20.0426 8.92853 20.5358C8.92853 21.0289 9.32827 21.4286 9.8214 21.4286H15.1785C15.6717 21.4286 16.0714 21.0289 16.0714 20.5358C16.0714 20.0426 15.6717 19.6429 15.1785 19.6429Z" fill="#7889A7"/>
</svg>
