<svg width="14" height="15" viewBox="0 0 14 15" fill="none" xmlns="http://www.w3.org/2000/svg">
<path d="M4.28354 9.28571V15H2.29846V0H8.98503C10.4477 0 11.597 0.408163 12.5373 1.32653C13.4776 2.2449 14 3.26531 14 4.59184C14 5.91837 13.582 7.04082 12.6417 7.95918C11.7014 8.87755 10.5522 9.28571 9.08951 9.28571H4.28354ZM9.08951 1.83673H4.28354V7.44898H9.08951C9.92533 7.44898 10.6567 7.14286 11.1791 6.63265C11.7014 6.12245 12.0149 5.40816 12.0149 4.59184C12.0149 3.77551 11.7014 3.06122 11.1791 2.55102C10.5522 2.04082 9.92533 1.83673 9.08951 1.83673Z" fill="#292929"/>
<path d="M0 12.7551V10.9184H10.2388V12.7551H0Z" fill="#292929"/>
<path d="M0 9.28571V7.44897H10.2388L9.08955 9.28571H0Z" fill="#292929"/>
</svg>
