<svg xmlns="http://www.w3.org/2000/svg">
    <symbol viewBox="0 0 20 20" id="header-phone">
        <path d="M19.8451 16.2946L15.3328 11.7788C15.2331 11.6808 15.0989 11.626 14.9592 11.626C14.8194 11.626 14.6852 11.6808 14.5855 11.7788L12.7679 13.5998C11.4457 12.8471 10.2303 11.9207 9.15389 10.8454C8.07861 9.76905 7.15226 8.55358 6.3995 7.2314L8.21704 5.41034C8.26627 5.36172 8.30535 5.3038 8.33203 5.23996C8.3587 5.17611 8.37243 5.10761 8.37243 5.03841C8.37243 4.96922 8.3587 4.90072 8.33203 4.83687C8.30535 4.77303 8.26627 4.71511 8.21704 4.66648L3.70476 0.154203C3.65614 0.104979 3.59822 0.0658967 3.53438 0.0392228C3.47053 0.0125488 3.40203 -0.00118637 3.33283 -0.00118637C3.26364 -0.00118637 3.19514 0.0125488 3.13129 0.0392228C3.06745 0.0658967 3.00953 0.104979 2.9609 0.154203L1.05213 2.04894C0.524176 2.57835 0.173227 3.25834 0.0475607 3.99538C-0.078106 4.73241 0.0276835 5.49028 0.350377 6.16473C1.76392 9.08629 3.66211 11.7473 5.96441 14.0349C8.252 16.3372 10.913 18.2354 13.8346 19.6489C14.3178 19.8796 14.8465 19.9995 15.382 19.9998C16.3437 20.0029 17.2674 19.6243 17.9504 18.9472L19.8451 17.0524C19.8965 17.0036 19.9374 16.9448 19.9654 16.8797C19.9933 16.8145 20.0077 16.7444 20.0077 16.6735C20.0077 16.6026 19.9933 16.5325 19.9654 16.4673C19.9374 16.4022 19.8965 16.3434 19.8451 16.2946Z" fill="#1D91FF"/>
    </symbol>
    

    <symbol viewBox="0 0 8 15" id="offers-link">
        <path d="M1 1L7 7.5L1 14" fill="none" stroke-width="2" stroke-linecap="round" stroke-linejoin="round"/>
    </symbol>

    <symbol viewBox="0 0 20 20" id="offers-favourite">
        <path fill-rule="evenodd" clip-rule="evenodd" d="M10 20C29.0069 6.33794 16.1979 -5.12055 10 2.37154C3.80209 -5.12055 -9.00693 6.33794 10 20Z"/>
    </symbol>

    <symbol viewBox="0 0 17 20" id="bank-label">
        <path fill-rule="evenodd" clip-rule="evenodd" d="M3.71875 2.15209H13.2812C14.1614 2.15209 14.875 2.87472 14.875 3.76615V17.3978L9.36181 13.8084H9.36179C8.83681 13.4667 8.16319 13.4667 7.63821 13.8084L2.125 17.3978V3.76615C2.125 2.87472 2.83854 2.15209 3.71875 2.15209ZM0 3.76615C0 1.68616 1.66494 0 3.71875 0H13.2812C15.3351 0 17 1.68616 17 3.76615V18.3833C17 19.6603 15.605 20.4316 14.5445 19.741L14.5445 19.7409L14.5445 19.741L15.4064 18.3833L15.6937 17.9307L14.875 17.3978V18.3833C14.875 17.9577 15.34 17.7006 15.6936 17.9308L15.4063 18.3833L14.5445 19.7409L8.50001 15.8058L8.78721 15.6188C8.61293 15.7323 8.38946 15.7327 8.2148 15.6201L8.50001 15.8058L2.45559 19.741C1.39492 20.4316 0 19.6603 0 18.3833V3.76615ZM2.125 17.3978L1.30647 17.9308C1.66003 17.7006 2.125 17.9577 2.125 18.3833V17.3978Z"/>
    </symbol>



</svg>