<svg width="40" height="40" viewBox="0 0 40 40" fill="none" xmlns="http://www.w3.org/2000/svg">
<path d="M20 0C16.0444 0 12.1776 1.17298 8.8886 3.37061C5.59962 5.56823 3.03617 8.69181 1.52242 12.3463C0.00866572 16.0009 -0.387401 20.0222 0.384303 23.9018C1.15601 27.7814 3.06082 31.3451 5.85787 34.1421C8.65492 36.9392 12.2186 38.844 16.0982 39.6157C19.9778 40.3874 23.9992 39.9913 27.6537 38.4776C31.3082 36.9638 34.4318 34.4004 36.6294 31.1114C38.827 27.8224 40 23.9556 40 20C40 14.6957 37.8929 9.60859 34.1421 5.85786C30.3914 2.10714 25.3043 0 20 0V0ZM21.6667 26.3167C21.5047 26.4562 21.3042 26.5433 21.0917 26.5667H19.775C18.7766 26.5448 17.7929 26.3209 16.8835 25.9084C15.974 25.4959 15.1575 24.9034 14.4833 24.1667C11.775 21.4 9.39167 15.925 9.39167 15.925C9.39167 15.925 9.25001 15.5583 9.39167 15.3917C9.53334 15.225 10.0167 15.1833 10.0167 15.1833H13.0667C13.2424 15.2159 13.4097 15.284 13.5583 15.3833C13.677 15.474 13.7691 15.5949 13.825 15.7333C14.1644 16.5364 14.5569 17.3159 15 18.0667C16.275 20.2333 16.8667 20.7 17.3 20.4667C17.9333 20.1333 17.7417 17.4167 17.7417 17.4167C17.7579 16.9226 17.649 16.4324 17.425 15.9917C17.1826 15.7211 16.8455 15.5541 16.4833 15.525C16.3083 15.525 16.5917 15.1083 16.9583 14.9333C17.82 14.6792 18.7217 14.5887 19.6167 14.6667C20.1212 14.6477 20.6259 14.6982 21.1167 14.8167C21.95 15.0083 21.9 15.65 21.8417 16.95C21.8417 17.3417 21.8417 17.7833 21.8417 18.3333C21.8417 18.45 21.8417 18.5833 21.8417 18.7083C21.8417 19.3917 21.8 20.1667 22.2583 20.4583C22.4917 20.6083 23.0917 20.4583 24.4917 18.1C24.946 17.3108 25.3415 16.4891 25.675 15.6417C25.7381 15.5073 25.8359 15.3922 25.9583 15.3083C26.0865 15.2419 26.2317 15.2158 26.375 15.2333H29.5833C29.5833 15.2333 30.5417 15.1167 30.7 15.5417C30.8583 15.9667 30.3417 17.0417 29.0333 18.75C27.725 20.4583 27.1833 20.9833 27.2333 21.5083C27.2333 21.9 27.6667 22.25 28.425 22.9333C29.2506 23.6044 29.9601 24.4068 30.525 25.3083C31.2333 26.4583 29.7417 26.55 29.7417 26.55H26.8917C26.3826 26.5937 25.876 26.4417 25.475 26.125C24.9964 25.8024 24.5573 25.4248 24.1667 25C23.5667 24.325 23.0083 23.7 22.5417 23.8417C21.7083 24.0917 21.7667 25.775 21.7667 25.775C21.7913 25.9616 21.7563 26.1512 21.6667 26.3167Z" fill="#C7D4DF"/>
</svg>
