<svg width="40" height="40" viewBox="0 0 40 40" fill="none" xmlns="http://www.w3.org/2000/svg">
<path d="M20 0C16.0444 0 12.1776 1.17298 8.8886 3.37061C5.59962 5.56823 3.03617 8.69181 1.52242 12.3463C0.00866572 16.0009 -0.387401 20.0222 0.384303 23.9018C1.15601 27.7814 3.06082 31.3451 5.85787 34.1421C8.65492 36.9392 12.2186 38.844 16.0982 39.6157C19.9778 40.3874 23.9992 39.9913 27.6537 38.4776C31.3082 36.9638 34.4318 34.4004 36.6294 31.1114C38.827 27.8224 40 23.9556 40 20C40 14.6957 37.8929 9.60859 34.1421 5.85786C30.3914 2.10714 25.3043 0 20 0V0ZM28.3333 13.125C28.7897 13.2529 29.2041 13.4991 29.5348 13.8385C29.8655 14.178 30.1007 14.5988 30.2167 15.0583C30.5271 16.7993 30.6778 18.565 30.6667 20.3333C30.6778 22.1017 30.5271 23.8674 30.2167 25.6083C30.1007 26.0679 29.8655 26.4886 29.5348 26.8281C29.2041 27.1676 28.7897 27.4137 28.3333 27.5417C26.6667 28 20 28 20 28C20 28 13.3333 28 11.6667 27.5417C11.21 27.4127 10.795 27.1664 10.4631 26.8272C10.1312 26.488 9.89398 26.0677 9.77501 25.6083C9.47023 23.8668 9.32241 22.1013 9.33334 20.3333C9.32241 18.5653 9.47023 16.7999 9.77501 15.0583C9.89398 14.5989 10.1312 14.1787 10.4631 13.8395C10.795 13.5003 11.21 13.254 11.6667 13.125C13.3333 12.6667 20 12.6667 20 12.6667C20 12.6667 26.6667 12.6667 28.3333 13.125Z" fill="#C7D4DF"/>
<path d="M17.9999 23.9992V17.3325L23.3333 20.6658L17.9999 23.9992Z" fill="#C7D4DF"/>
</svg>
