<svg width="12" height="12" viewBox="0 0 12 12" fill="none" xmlns="http://www.w3.org/2000/svg">
<path fill-rule="evenodd" clip-rule="evenodd" d="M0.296212 0.296151C-0.0943126 0.686675 -0.100184 1.32571 0.29034 1.71624L4.57408 5.99998L0.29034 10.2837C-0.100184 10.6742 -0.0943125 11.3133 0.296212 11.7038C0.686736 12.0943 1.32577 12.1002 1.7163 11.7097L6.00004 7.42593L10.2838 11.7097C10.6743 12.1002 11.3133 12.0943 11.7039 11.7038C12.0944 11.3133 12.1003 10.6742 11.7097 10.2837L7.42599 5.99998L11.7097 1.71624C12.1003 1.32571 12.0944 0.686676 11.7039 0.296152C11.3133 -0.0943726 10.6743 -0.100244 10.2838 0.29028L6.00004 4.57402L1.7163 0.290279C1.32577 -0.100245 0.686736 -0.0943736 0.296212 0.296151Z" fill="#1D91FF"/>
</svg>
